<svg width="16" height="16" viewBox="0 0 16 16" fill="none" xmlns="http://www.w3.org/2000/svg">
<path d="M10.962 4.88535C11.0507 4.7868 11.1749 4.7275 11.3073 4.7205C11.4397 4.7135 11.5694 4.75937 11.668 4.84802L12.826 5.89068C13.3173 6.33268 13.724 6.69868 14.004 7.03068C14.2973 7.38068 14.5067 7.75602 14.5067 8.22002C14.5067 8.68335 14.298 9.05868 14.004 9.40802C13.724 9.74068 13.3173 10.1073 12.826 10.5487L11.668 11.5913C11.6192 11.6353 11.5622 11.6692 11.5003 11.6911C11.4384 11.7131 11.3728 11.7226 11.3072 11.7191C11.2416 11.7157 11.1773 11.6994 11.118 11.6711C11.0587 11.6428 11.0056 11.6032 10.9617 11.5543C10.9177 11.5055 10.8838 11.4486 10.8619 11.3866C10.84 11.3247 10.8304 11.2591 10.8339 11.1935C10.8373 11.1279 10.8536 11.0637 10.8819 11.0044C10.9102 10.9451 10.9499 10.892 10.9987 10.848L12.13 9.83002C12.6553 9.35735 13.0093 9.03668 13.2387 8.76468C13.4587 8.50268 13.5067 8.35002 13.5067 8.22002C13.5067 8.08935 13.4587 7.93668 13.2387 7.67468C13.0093 7.40202 12.6553 7.08202 12.13 6.60935L10.9987 5.59135C10.9498 5.54743 10.91 5.4943 10.8817 5.435C10.8533 5.3757 10.837 5.31139 10.8335 5.24576C10.83 5.18012 10.8395 5.11445 10.8615 5.05249C10.8834 4.99053 10.9173 4.93351 10.9613 4.88468M5.00133 5.59135C5.0999 5.50259 5.15918 5.37831 5.16612 5.24584C5.17306 5.11338 5.12709 4.98359 5.03833 4.88502C4.94957 4.78644 4.82529 4.72717 4.69283 4.72023C4.56037 4.71329 4.43057 4.75926 4.332 4.84802L3.174 5.89068C2.68267 6.33268 2.276 6.69868 1.996 7.03068C1.70267 7.38068 1.49333 7.75602 1.49333 8.22002C1.49333 8.68335 1.702 9.05868 1.996 9.40802C2.276 9.74068 2.68267 10.1073 3.174 10.5487L4.332 11.5913C4.38081 11.6353 4.43779 11.6692 4.4997 11.6911C4.56162 11.7131 4.62724 11.7226 4.69283 11.7191C4.75842 11.7157 4.82269 11.6994 4.88197 11.6711C4.94125 11.6428 4.99438 11.6032 5.03833 11.5543C5.08228 11.5055 5.11619 11.4486 5.13811 11.3866C5.16004 11.3247 5.16955 11.2591 5.16612 11.1935C5.16268 11.1279 5.14636 11.0637 5.11809 11.0044C5.08981 10.9451 5.05014 10.892 5.00133 10.848L3.87 9.83002C3.34467 9.35735 2.99067 9.03668 2.76133 8.76468C2.54133 8.50268 2.49333 8.35002 2.49333 8.22002C2.49333 8.08935 2.54133 7.93668 2.76133 7.67468C2.99067 7.40202 3.34467 7.08202 3.87 6.60935L5.00133 5.59135Z" fill="#757575"/>
<path d="M9.45466 2.85068C9.58263 2.88505 9.69172 2.96881 9.75797 3.08356C9.82422 3.19831 9.84221 3.33467 9.808 3.46268L7.15866 13.3493C7.14164 13.4128 7.11228 13.4722 7.07228 13.5243C7.03227 13.5764 6.9824 13.6201 6.92551 13.6529C6.81061 13.7192 6.6741 13.7371 6.546 13.7027C6.4179 13.6683 6.30871 13.5844 6.24244 13.4695C6.17618 13.3546 6.15827 13.2181 6.19266 13.09L8.842 3.20334C8.85901 3.13991 8.88836 3.08045 8.92836 3.02836C8.96836 2.97627 9.01824 2.93257 9.07513 2.89975C9.13203 2.86694 9.19483 2.84566 9.25995 2.83713C9.32507 2.82859 9.39124 2.83364 9.45466 2.85068Z" fill="black"/>
</svg>
