<svg width="14" height="14" viewBox="0 0 14 14" fill="none" xmlns="http://www.w3.org/2000/svg">
<path fill-rule="evenodd" clip-rule="evenodd" d="M11.0834 1.75C12.0498 1.75 12.8334 2.53351 12.8334 3.5C12.8334 4.46649 12.0498 5.25 11.0834 5.25C10.7653 5.25 10.467 5.16515 10.21 5.01687L8.63273 6.36882C8.71054 6.57015 8.75031 6.78416 8.75003 7C8.75008 7.10471 8.74077 7.20921 8.72222 7.31227L9.9402 8.00825C10.2469 7.74348 10.6464 7.58332 11.0834 7.58332C12.0498 7.58332 12.8334 8.36683 12.8334 9.33332C12.8334 10.2998 12.0498 11.0833 11.0834 11.0833C10.1169 11.0833 9.33336 10.2998 9.33336 9.33332C9.33336 9.22679 9.34287 9.12248 9.36111 9.02117L8.14297 8.32521L8.14459 8.32379L8.131 8.33544C7.826 8.59403 7.43121 8.75 7 8.75C6.68008 8.75 6.38023 8.66414 6.12219 8.51424L6.12653 8.51676L4.54935 9.86874C4.62719 10.0701 4.66698 10.2841 4.66671 10.5C4.66671 11.4665 3.8832 12.25 2.91671 12.25C1.95021 12.25 1.16671 11.4665 1.16671 10.5C1.16671 9.53351 1.95021 8.75 2.91671 8.75C3.23477 8.75 3.53301 8.83485 3.79004 8.98316L5.36734 7.6312L5.36055 7.61343C5.28724 7.41723 5.24979 7.20945 5.25 7C5.24995 6.89529 5.25924 6.79079 5.27778 6.68773L4.05981 5.99175C3.75318 6.25652 3.35363 6.41668 2.91668 6.41668C1.95019 6.41668 1.16668 5.63317 1.16668 4.66668C1.16668 3.70018 1.95019 2.91668 2.91668 2.91668C3.88317 2.91668 4.66668 3.70016 4.66668 4.66668C4.66668 4.77315 4.65716 4.87744 4.63895 4.97867L5.85717 5.67465C5.85225 5.67888 5.84736 5.68314 5.84252 5.68745C6.15101 5.41518 6.55621 5.25 7 5.25C7.31828 5.25 7.61674 5.33498 7.87391 5.48349L7.87293 5.48291L9.45055 4.13098C9.3728 3.92971 9.33306 3.71577 9.33336 3.5C9.33336 2.53351 10.1168 1.75 11.0834 1.75ZM7 6.41668C6.67784 6.41668 6.41668 6.67781 6.41668 7C6.41668 7.32219 6.67784 7.58332 7 7.58332C7.32217 7.58332 7.58336 7.32219 7.58336 7C7.58336 6.67781 7.32217 6.41668 7 6.41668ZM2.91668 4.08332C2.59452 4.08332 2.33336 4.34451 2.33336 4.66668C2.33336 4.98884 2.59449 5.25 2.91668 5.25C3.23887 5.25 3.5 4.98884 3.5 4.66668C3.5 4.34451 3.23887 4.08332 2.91668 4.08332ZM11.0834 2.91668C10.7612 2.91668 10.5 3.17781 10.5 3.5C10.5 3.82219 10.7612 4.08332 11.0834 4.08332C11.4055 4.08332 11.6667 3.82219 11.6667 3.5C11.6667 3.17781 11.4055 2.91668 11.0834 2.91668Z" fill="#757575"/>
</svg>
