<svg width="16" height="16" viewBox="0 0 16 16" fill="none" xmlns="http://www.w3.org/2000/svg">
<path d="M14.8775 10.6725C14.8306 10.6184 14.7726 10.575 14.7075 10.5452C14.6424 10.5155 14.5716 10.5 14.5 10.5H13.5V9.5C13.5 8.949 13.0515 8.5 12.5 8.5H10.5C9.9485 8.5 9.5 8.949 9.5 9.5V10.5H8.5C8.42833 10.5 8.3575 10.5154 8.29231 10.5451C8.22711 10.5749 8.16908 10.6183 8.12213 10.6725C8.07519 10.7266 8.04043 10.7902 8.02023 10.859C8.00002 10.9278 7.99482 11.0001 8.005 11.071L8.505 14.571C8.52209 14.6901 8.58154 14.799 8.67247 14.8778C8.76339 14.9566 8.87968 15 9 15H14C14.1203 15 14.2366 14.9566 14.3275 14.8778C14.4185 14.799 14.4779 14.6901 14.495 14.571L14.995 11.071C15.0051 11 14.9999 10.9277 14.9796 10.859C14.9593 10.7902 14.9245 10.7266 14.8775 10.6725ZM10.5 9.5H12.5V10.5H10.5V9.5ZM13.5665 14H9.4335L9.0765 11.5H13.9235L13.5665 14ZM5 10H6V15H5V10Z" fill="#757575"/>
<path d="M8.39 8.9375L7.437 7.7455L6.716 5.943C6.60523 5.6642 6.41314 5.42517 6.16471 5.25699C5.91628 5.08881 5.623 4.99927 5.323 5H2.5C1.673 5 1 5.673 1 6.5V10C1 10.5515 1.4485 11 2 11H2.5V15H3.5V10H2V6.5C2 6.36739 2.05268 6.24021 2.14645 6.14645C2.24021 6.05268 2.36739 6 2.5 6H5.323C5.5285 6 5.711 6.1235 5.787 6.3145L6.6095 8.3125L7.6095 9.5625L8.39 8.9375ZM2 2.5C2 1.397 2.897 0.5 4 0.5C5.103 0.5 6 1.397 6 2.5C6 3.603 5.103 4.5 4 4.5C2.897 4.5 2 3.603 2 2.5ZM3 2.5C3 3.0515 3.4485 3.5 4 3.5C4.5515 3.5 5 3.0515 5 2.5C5 1.9485 4.5515 1.5 4 1.5C3.4485 1.5 3 1.9485 3 2.5Z" fill="#757575"/>
</svg>
