<svg width="16" height="16" viewBox="0 0 16 16" fill="none" xmlns="http://www.w3.org/2000/svg">
<path opacity="0.5" d="M6.66667 11.3334H4.66667C3.78261 11.3334 2.93477 10.9822 2.30965 10.357C1.68453 9.73192 1.33334 8.88408 1.33334 8.00002C1.33334 7.11597 1.68453 6.26812 2.30965 5.643C2.93477 5.01788 3.78261 4.66669 4.66667 4.66669H6.66667C6.84348 4.66669 7.01305 4.73693 7.13807 4.86195C7.2631 4.98697 7.33334 5.15654 7.33334 5.33335C7.33334 5.51016 7.2631 5.67973 7.13807 5.80476C7.01305 5.92978 6.84348 6.00002 6.66667 6.00002H4.66667C4.13624 6.00002 3.62753 6.21073 3.25246 6.58581C2.87738 6.96088 2.66667 7.46959 2.66667 8.00002C2.66667 8.53045 2.87738 9.03916 3.25246 9.41423C3.62753 9.78931 4.13624 10 4.66667 10H6.66667C6.84348 10 7.01305 10.0703 7.13807 10.1953C7.2631 10.3203 7.33334 10.4899 7.33334 10.6667C7.33334 10.8435 7.2631 11.0131 7.13807 11.1381C7.01305 11.2631 6.84348 11.3334 6.66667 11.3334ZM11.3333 11.3334H9.33334C9.15653 11.3334 8.98696 11.2631 8.86193 11.1381C8.73691 11.0131 8.66667 10.8435 8.66667 10.6667C8.66667 10.4899 8.73691 10.3203 8.86193 10.1953C8.98696 10.0703 9.15653 10 9.33334 10H11.3333C11.8638 10 12.3725 9.78931 12.7476 9.41423C13.1226 9.03916 13.3333 8.53045 13.3333 8.00002C13.3333 7.46959 13.1226 6.96088 12.7476 6.58581C12.3725 6.21073 11.8638 6.00002 11.3333 6.00002H9.33334C9.15653 6.00002 8.98696 5.92978 8.86193 5.80476C8.73691 5.67973 8.66667 5.51016 8.66667 5.33335C8.66667 5.15654 8.73691 4.98697 8.86193 4.86195C8.98696 4.73693 9.15653 4.66669 9.33334 4.66669H11.3333C12.2174 4.66669 13.0652 5.01788 13.6904 5.643C14.3155 6.26812 14.6667 7.11597 14.6667 8.00002C14.6667 8.88408 14.3155 9.73192 13.6904 10.357C13.0652 10.9822 12.2174 11.3334 11.3333 11.3334Z" fill="#757575"/>
<path d="M10 8.66665H6C5.82319 8.66665 5.65362 8.59641 5.5286 8.47138C5.40357 8.34636 5.33334 8.17679 5.33334 7.99998C5.33334 7.82317 5.40357 7.6536 5.5286 7.52858C5.65362 7.40355 5.82319 7.33331 6 7.33331H10C10.1768 7.33331 10.3464 7.40355 10.4714 7.52858C10.5964 7.6536 10.6667 7.82317 10.6667 7.99998C10.6667 8.17679 10.5964 8.34636 10.4714 8.47138C10.3464 8.59641 10.1768 8.66665 10 8.66665Z" fill="black"/>
</svg>
