<svg width="14" height="14" viewBox="0 0 14 14" fill="none" xmlns="http://www.w3.org/2000/svg">
<g clip-path="url(#clip0_29_15)">
<path d="M7.00117 5.2506C6.35659 5.2506 5.8345 5.6426 5.8345 6.1256C5.8345 6.6086 6.35659 7.0006 7.00117 7.0006C7.64575 7.0006 8.16784 7.3926 8.16784 7.8756C8.16784 8.3586 7.64517 8.7506 7.00117 8.7506M7.00117 5.2506C7.50867 5.2506 7.9415 5.49385 8.10134 5.83393M7.00117 5.2506V4.66727M7.00117 8.7506C6.49367 8.7506 6.06084 8.50735 5.901 8.16727M7.00117 8.7506V9.33393" stroke="#757575" stroke-linecap="round" stroke-linejoin="round"/>
<path d="M7.875 1.45893H7C4.38784 1.45893 3.08117 1.45893 2.26975 2.27035C1.45834 3.08176 1.45834 4.38785 1.45834 7.0006C1.45834 9.61276 1.45834 10.9188 2.26975 11.7308C3.08117 12.5417 4.38725 12.5417 7 12.5417C9.61217 12.5417 10.9188 12.5417 11.7303 11.7303C12.5417 10.9188 12.5417 9.61335 12.5417 7.00001V6.12501M9.625 4.37443L12.061 1.93726M12.5417 4.06993L12.4728 2.26685C12.4728 1.8416 12.2191 1.57676 11.7565 1.54351L9.93417 1.45776" stroke="#757575" stroke-linecap="round" stroke-linejoin="round"/>
</g>
<defs>
<clipPath id="clip0_29_15">
<rect width="14" height="14" fill="white"/>
</clipPath>
</defs>
</svg>
