<?xml version="1.0" encoding="utf-8"?>
<!-- Generator: Adobe Illustrator 23.0.3, SVG Export Plug-In . SVG Version: 6.00 Build 0)  -->
<svg version="1.1" id="Character_00000021800266161506010450000008413185368674506141_"
	 xmlns="http://www.w3.org/2000/svg" xmlns:xlink="http://www.w3.org/1999/xlink" x="0px" y="0px" viewBox="0 0 325.1 307"
	 style="enable-background:new 0 0 325.1 307;" xml:space="preserve">
<style type="text/css">
	.st0{display:none;}
	.st1{display:inline;}
	.st2{fill:#E0E0E0;}
	.st3{fill:#FAFAFA;}
	.st4{fill:#FFFFFF;}
	.st5{fill:#EBEBEB;}
	.st6{fill:#C7E1F6;}
	.st7{fill:#112C56;}
	.st8{fill:#6CAEE3;}
	.st9{fill:#A1CDF0;}
	.st10{fill:#D45D00;}
	.st11{display:none;fill:#A1CDF0;}
	.st12{fill:#2ACC98;}
	.st13{fill:#27A77E;}
	.st14{opacity:0.32;fill:#C7E1F6;}
	.st15{fill:#016FC2;}
	.st16{fill:#263238;}
	.st17{fill:#FF725E;}
	.st18{fill:#AE7461;}
	.st19{fill:#6F4439;}
	.st20{fill:#455A64;}
	.st21{opacity:0.3;}
	.st22{opacity:0.6;}
	.st23{fill:#E3E9F7;}
	.st24{fill:#F4F6FC;}
	.st25{fill:#CDD7FB;}
	.st26{fill:#ACBCF8;}
	.st27{fill:#0F31AC;}
	.st28{fill:#FFFFFF;stroke:#E3E9F7;stroke-width:4.6748;stroke-miterlimit:10;}
	.st29{fill:#F29E61;}
	.st30{fill:#040C2B;}
	.st31{opacity:0.15;}
</style>
<g class="st0">
	<g class="st1">
		<g>
			<g>
				<g>
					<g>
						<g>
							<g>
								<g>
									<g>
										<g>
											<rect x="204.3" y="5.5" class="st2" width="48.7" height="50.7"/>
										</g>
									</g>
								</g>
							</g>
						</g>
					</g>
				</g>
			</g>
		</g>
		<g>
			<g>
				<g>
					<g>
						<g>
							<g>
								<g>
									<g>
										<g>
											<rect x="201" y="5.5" class="st3" width="48.7" height="50.7"/>
										</g>
									</g>
								</g>
							</g>
						</g>
					</g>
				</g>
			</g>
			<g>
				<g>
					<g>
						<g>
							<g>
								<g>
									<g>
										<g>
											<path class="st2" d="M249.7,56.2H201V5.5h48.7V56.2z M201,56.2h48.6V5.5H201V56.2z"/>
										</g>
									</g>
								</g>
							</g>
						</g>
					</g>
				</g>
			</g>
		</g>
		<g>
			<g>
				<g>
					<g>
						<g>
							<g>
								<g>
									<g>
										<g>
											<rect x="207.6" y="12.3" class="st4" width="35.6" height="37.1"/>
										</g>
									</g>
								</g>
							</g>
						</g>
					</g>
				</g>
			</g>
		</g>
		<g>
			<g>
				<g>
					<g>
						<g>
							<g>
								<g>
									<g>
										<g>
											<g>
												<path class="st2" d="M207.6,49.6c0,0-0.3,0.4-0.9,1c-0.6,0.6-1.4,1.4-2.3,2.3c-0.9,0.9-1.7,1.7-2.3,2.2
													c-0.6,0.6-1,0.9-1,0.9c0,0,0.3-0.4,0.9-1c0.6-0.6,1.4-1.4,2.3-2.3c0.9-0.9,1.7-1.7,2.3-2.2
													C207.1,49.9,207.5,49.6,207.6,49.6z"/>
											</g>
										</g>
									</g>
								</g>
							</g>
						</g>
					</g>
				</g>
			</g>
		</g>
		<g>
			<g>
				<g>
					<g>
						<g>
							<g>
								<g>
									<g>
										<g>
											<g>
												<path class="st2" d="M243.1,49.6c0,0,0.4,0.3,1,0.9c0.6,0.6,1.4,1.4,2.3,2.3c0.9,0.9,1.7,1.7,2.2,2.3
													c0.6,0.6,0.9,1,0.9,1c0,0-0.4-0.3-1-0.9c-0.6-0.6-1.4-1.4-2.3-2.3c-0.9-0.9-1.7-1.7-2.2-2.3
													C243.4,50,243.1,49.6,243.1,49.6z"/>
											</g>
										</g>
									</g>
								</g>
							</g>
						</g>
					</g>
				</g>
			</g>
		</g>
		<g>
			<g>
				<g>
					<g>
						<g>
							<g>
								<g>
									<g>
										<g>
											<g>
												<path class="st2" d="M243,12.4c0,0,0.3-0.4,0.9-1c0.6-0.6,1.4-1.4,2.3-2.3c0.9-0.9,1.7-1.7,2.3-2.2c0.6-0.6,1-0.9,1-0.9
													c0,0-0.3,0.4-0.9,1c-0.6,0.6-1.4,1.4-2.3,2.3c-0.9,0.9-1.7,1.7-2.3,2.2C243.5,12.1,243.1,12.4,243,12.4z"/>
											</g>
										</g>
									</g>
								</g>
							</g>
						</g>
					</g>
				</g>
			</g>
		</g>
		<g>
			<g>
				<g>
					<g>
						<g>
							<g>
								<g>
									<g>
										<g>
											<g>
												<path class="st2" d="M207.5,12.5c0,0-0.4-0.3-1-0.9c-0.6-0.6-1.4-1.4-2.3-2.3c-0.9-0.9-1.7-1.7-2.2-2.3
													c-0.6-0.6-0.9-1-0.9-1c0,0,0.4,0.3,1,0.9s1.4,1.4,2.3,2.3c0.9,0.9,1.7,1.7,2.2,2.3C207.2,12.1,207.5,12.5,207.5,12.5z"
													/>
											</g>
										</g>
									</g>
								</g>
							</g>
						</g>
					</g>
				</g>
			</g>
		</g>
		<g>
			<g>
				<g>
					<g>
						<g>
							<g>
								<g>
									<g>
										<g>
											<g>
												<path class="st2" d="M243,49.4c0,0,0-0.1,0-0.2c0-0.1,0-0.3,0-0.5c0-0.5,0-1.1,0-2c0-1.8,0-4.3,0-7.6
													c0-6.5,0-15.7-0.1-26.8l0.1,0.1c-10.4,0-22.5,0-35.5,0h0l0.2-0.2c0,13.6,0,26.3,0,37.1l-0.1-0.1
													c10.6,0,19.5,0.1,25.7,0.1c3.1,0,5.5,0,7.2,0c0.8,0,1.5,0,1.9,0c0.2,0,0.4,0,0.5,0C243,49.4,243,49.4,243,49.4
													c0,0-0.1,0-0.2,0c-0.1,0-0.3,0-0.5,0c-0.4,0-1.1,0-1.9,0c-1.7,0-4.1,0-7.2,0c-6.2,0-15.1,0-25.8,0.1l-0.1,0l0-0.1
													c0-10.7,0-23.5,0-37.1l0-0.2h0.2h0c13,0,25.1,0,35.5,0h0.1l0,0.1c0,11.1-0.1,20.4-0.1,26.9c0,3.2,0,5.8,0,7.5
													c0,0.9,0,1.5,0,2c0,0.2,0,0.4,0,0.5C243,49.3,243,49.4,243,49.4z"/>
											</g>
										</g>
									</g>
								</g>
							</g>
						</g>
					</g>
				</g>
			</g>
		</g>
		<g>
			<g>
				<g>
					<g>
						<g>
							<g>
								<g>
									<g>
										<g>
											<rect x="219.4" y="24.9" class="st5" width="11.9" height="11.9"/>
										</g>
									</g>
								</g>
							</g>
						</g>
					</g>
				</g>
			</g>
		</g>
	</g>
	<g class="st1">
		<g>
			<g>
				<g>
					<g>
						<g>
							<g>
								<g>
									<g>
										<g>
											<rect x="204.3" y="75.7" class="st2" width="48.7" height="50.7"/>
										</g>
									</g>
								</g>
							</g>
						</g>
					</g>
				</g>
			</g>
		</g>
		<g>
			<g>
				<g>
					<g>
						<g>
							<g>
								<g>
									<g>
										<g>
											<rect x="201" y="75.7" class="st3" width="48.7" height="50.7"/>
										</g>
									</g>
								</g>
							</g>
						</g>
					</g>
				</g>
			</g>
			<g>
				<g>
					<g>
						<g>
							<g>
								<g>
									<g>
										<g>
											<path class="st2" d="M249.7,126.4H201V75.7h48.7V126.4z M201,126.4h48.6V75.7H201V126.4z"/>
										</g>
									</g>
								</g>
							</g>
						</g>
					</g>
				</g>
			</g>
		</g>
		<g>
			<g>
				<g>
					<g>
						<g>
							<g>
								<g>
									<g>
										<g>
											<rect x="207.6" y="82.5" class="st4" width="35.6" height="37.1"/>
										</g>
									</g>
								</g>
							</g>
						</g>
					</g>
				</g>
			</g>
		</g>
		<g>
			<g>
				<g>
					<g>
						<g>
							<g>
								<g>
									<g>
										<g>
											<g>
												<path class="st2" d="M207.6,119.9c0,0-0.3,0.4-0.9,1c-0.6,0.6-1.4,1.4-2.3,2.3c-0.9,0.9-1.7,1.7-2.3,2.2
													c-0.6,0.6-1,0.9-1,0.9c0,0,0.3-0.4,0.9-1c0.6-0.6,1.4-1.4,2.3-2.3c0.9-0.9,1.7-1.7,2.3-2.2
													C207.1,120.2,207.5,119.8,207.6,119.9z"/>
											</g>
										</g>
									</g>
								</g>
							</g>
						</g>
					</g>
				</g>
			</g>
		</g>
		<g>
			<g>
				<g>
					<g>
						<g>
							<g>
								<g>
									<g>
										<g>
											<g>
												<path class="st2" d="M243.1,119.8c0,0,0.4,0.3,1,0.9c0.6,0.6,1.4,1.4,2.3,2.3c0.9,0.9,1.7,1.7,2.2,2.3
													c0.6,0.6,0.9,1,0.9,1c0,0-0.4-0.3-1-0.9c-0.6-0.6-1.4-1.4-2.3-2.3c-0.9-0.9-1.7-1.7-2.2-2.3
													C243.4,120.2,243.1,119.8,243.1,119.8z"/>
											</g>
										</g>
									</g>
								</g>
							</g>
						</g>
					</g>
				</g>
			</g>
		</g>
		<g>
			<g>
				<g>
					<g>
						<g>
							<g>
								<g>
									<g>
										<g>
											<g>
												<path class="st2" d="M243,82.6c0,0,0.3-0.4,0.9-1c0.6-0.6,1.4-1.4,2.3-2.3c0.9-0.9,1.7-1.7,2.3-2.2c0.6-0.6,1-0.9,1-0.9
													c0,0-0.3,0.4-0.9,1c-0.6,0.6-1.4,1.4-2.3,2.3c-0.9,0.9-1.7,1.7-2.3,2.2C243.5,82.3,243.1,82.7,243,82.6z"/>
											</g>
										</g>
									</g>
								</g>
							</g>
						</g>
					</g>
				</g>
			</g>
		</g>
		<g>
			<g>
				<g>
					<g>
						<g>
							<g>
								<g>
									<g>
										<g>
											<g>
												<path class="st2" d="M207.5,82.7c0,0-0.4-0.3-1-0.9c-0.6-0.6-1.4-1.4-2.3-2.3c-0.9-0.9-1.7-1.7-2.2-2.3
													c-0.6-0.6-0.9-1-0.9-1c0,0,0.4,0.3,1,0.9c0.6,0.6,1.4,1.4,2.3,2.3c0.9,0.9,1.7,1.7,2.2,2.3
													C207.2,82.3,207.5,82.7,207.5,82.7z"/>
											</g>
										</g>
									</g>
								</g>
							</g>
						</g>
					</g>
				</g>
			</g>
		</g>
		<g>
			<g>
				<g>
					<g>
						<g>
							<g>
								<g>
									<g>
										<g>
											<g>
												<path class="st2" d="M243,119.6c0,0,0-0.1,0-0.2c0-0.1,0-0.3,0-0.5c0-0.5,0-1.1,0-2c0-1.8,0-4.3,0-7.6
													c0-6.5,0-15.7-0.1-26.8l0.1,0.1c-10.4,0-22.5,0-35.5,0h0l0.2-0.2c0,13.6,0,26.3,0,37.1l-0.1-0.1
													c10.6,0,19.5,0.1,25.7,0.1c3.1,0,5.5,0,7.2,0c0.8,0,1.5,0,1.9,0c0.2,0,0.4,0,0.5,0C243,119.6,243,119.6,243,119.6
													c0,0-0.1,0-0.2,0c-0.1,0-0.3,0-0.5,0c-0.4,0-1.1,0-1.9,0c-1.7,0-4.1,0-7.2,0c-6.2,0-15.1,0-25.8,0.1l-0.1,0l0-0.1
													c0-10.7,0-23.5,0-37.1l0-0.2h0.2h0c13,0,25.1,0,35.5,0h0.1l0,0.1c0,11.1-0.1,20.4-0.1,26.9c0,3.2,0,5.8,0,7.5
													c0,0.9,0,1.5,0,2c0,0.2,0,0.4,0,0.5C243,119.6,243,119.6,243,119.6z"/>
											</g>
										</g>
									</g>
								</g>
							</g>
						</g>
					</g>
				</g>
			</g>
		</g>
		<g>
			<g>
				<g>
					<g>
						<g>
							<g>
								<g>
									<g>
										<g>
											<rect x="219.4" y="95.1" class="st5" width="11.9" height="11.9"/>
										</g>
									</g>
								</g>
							</g>
						</g>
					</g>
				</g>
			</g>
		</g>
	</g>
	<g class="st1">
		<g>
			<g>
				<g>
					<g>
						<g>
							<g>
								<g>
									<g>
										<g>
											<rect x="62.8" y="135.8" class="st2" width="38.4" height="40"/>
										</g>
									</g>
								</g>
							</g>
						</g>
					</g>
				</g>
			</g>
		</g>
		<g>
			<g>
				<g>
					<g>
						<g>
							<g>
								<g>
									<g>
										<g>
											<rect x="60.2" y="135.8" class="st3" width="38.4" height="40"/>
										</g>
									</g>
								</g>
							</g>
						</g>
					</g>
				</g>
			</g>
			<g>
				<g>
					<g>
						<g>
							<g>
								<g>
									<g>
										<g>
											<path class="st2" d="M98.6,175.8H60.2v-40h38.4V175.8z M60.3,175.8h38.4v-40H60.3V175.8z"/>
										</g>
									</g>
								</g>
							</g>
						</g>
					</g>
				</g>
			</g>
		</g>
		<g>
			<g>
				<g>
					<g>
						<g>
							<g>
								<g>
									<g>
										<g>
											<rect x="65.4" y="141.1" class="st4" width="28.1" height="29.3"/>
										</g>
									</g>
								</g>
							</g>
						</g>
					</g>
				</g>
			</g>
		</g>
		<g>
			<g>
				<g>
					<g>
						<g>
							<g>
								<g>
									<g>
										<g>
											<g>
												<path class="st2" d="M65.4,170.6c0,0-0.2,0.3-0.7,0.8c-0.4,0.5-1.1,1.1-1.8,1.8c-0.7,0.7-1.4,1.3-1.8,1.8
													c-0.5,0.4-0.8,0.7-0.8,0.7c0,0,0.2-0.3,0.7-0.8c0.4-0.5,1.1-1.1,1.8-1.8c0.7-0.7,1.4-1.3,1.8-1.8
													C65.1,170.8,65.4,170.6,65.4,170.6z"/>
											</g>
										</g>
									</g>
								</g>
							</g>
						</g>
					</g>
				</g>
			</g>
		</g>
		<g>
			<g>
				<g>
					<g>
						<g>
							<g>
								<g>
									<g>
										<g>
											<g>
												<path class="st2" d="M93.5,170.5c0,0,0.3,0.2,0.8,0.7c0.5,0.4,1.1,1.1,1.8,1.8c0.7,0.7,1.3,1.4,1.8,1.8
													c0.4,0.5,0.7,0.8,0.7,0.8c0,0-0.3-0.2-0.8-0.7c-0.5-0.4-1.1-1.1-1.8-1.8c-0.7-0.7-1.3-1.4-1.8-1.8
													C93.7,170.9,93.4,170.5,93.5,170.5z"/>
											</g>
										</g>
									</g>
								</g>
							</g>
						</g>
					</g>
				</g>
			</g>
		</g>
		<g>
			<g>
				<g>
					<g>
						<g>
							<g>
								<g>
									<g>
										<g>
											<g>
												<path class="st2" d="M93.4,141.2c0,0,0.2-0.3,0.7-0.8c0.4-0.5,1.1-1.1,1.8-1.8c0.7-0.7,1.4-1.3,1.8-1.8
													c0.5-0.4,0.8-0.7,0.8-0.7c0,0-0.2,0.3-0.7,0.8c-0.4,0.5-1.1,1.1-1.8,1.8c-0.7,0.7-1.4,1.3-1.8,1.8
													C93.7,141,93.4,141.3,93.4,141.2z"/>
											</g>
										</g>
									</g>
								</g>
							</g>
						</g>
					</g>
				</g>
			</g>
		</g>
		<g>
			<g>
				<g>
					<g>
						<g>
							<g>
								<g>
									<g>
										<g>
											<g>
												<path class="st2" d="M65.3,141.3c0,0-0.3-0.2-0.8-0.7c-0.5-0.4-1.1-1.1-1.8-1.8c-0.7-0.7-1.3-1.4-1.8-1.8
													c-0.4-0.5-0.7-0.8-0.7-0.8c0,0,0.3,0.2,0.8,0.7c0.5,0.4,1.1,1.1,1.8,1.8c0.7,0.7,1.3,1.4,1.8,1.8
													C65.1,141,65.4,141.3,65.3,141.3z"/>
											</g>
										</g>
									</g>
								</g>
							</g>
						</g>
					</g>
				</g>
			</g>
		</g>
		<g>
			<g>
				<g>
					<g>
						<g>
							<g>
								<g>
									<g>
										<g>
											<g>
												<path class="st2" d="M93.4,170.4c0,0,0,0,0-0.1c0-0.1,0-0.2,0-0.4c0-0.4,0-0.9,0-1.6c0-1.4,0-3.4,0-6
													c0-5.1,0-12.4-0.1-21.2l0.1,0.1c-8.2,0-17.8,0-28,0h0l0.1-0.1c0,10.7,0,20.8,0,29.3l-0.1-0.1c8.4,0,15.4,0,20.3,0.1
													c2.4,0,4.4,0,5.7,0c0.7,0,1.2,0,1.5,0c0.2,0,0.3,0,0.4,0C93.3,170.4,93.4,170.4,93.4,170.4c0,0,0,0-0.1,0
													c-0.1,0-0.2,0-0.4,0c-0.3,0-0.8,0-1.5,0c-1.3,0-3.2,0-5.7,0c-4.9,0-11.9,0-20.3,0.1l-0.1,0l0-0.1c0-8.5,0-18.5,0-29.3
													l0-0.1h0.1h0c10.2,0,19.8,0,28,0h0.1l0,0.1c0,8.8,0,16.1-0.1,21.2c0,2.5,0,4.6,0,5.9c0,0.7,0,1.2,0,1.6
													c0,0.2,0,0.3,0,0.4C93.4,170.4,93.4,170.4,93.4,170.4z"/>
											</g>
										</g>
									</g>
								</g>
							</g>
						</g>
					</g>
				</g>
			</g>
		</g>
		<g>
			<g>
				<g>
					<g>
						<g>
							<g>
								<g>
									<g>
										<g>
											<rect x="74.8" y="151.1" class="st5" width="9.4" height="9.4"/>
										</g>
									</g>
								</g>
							</g>
						</g>
					</g>
				</g>
			</g>
		</g>
	</g>
	<g class="st1">
		<g>
			<path class="st2" d="M247.9,147.1c-7.5,3.9-13.3,10.6-17.5,18c-4.2,7.4-6.8,15.5-9.5,23.6l-2.3,41.6
				c8.8-14.9,15.8-32.5,17.7-49.7c-1.9-0.2-3.9-0.3-5.8-0.5c3.9-0.6,7.2-3.4,9.3-6.8c2.1-3.4,3.2-7.2,4.2-11.1
				c-2.4,0.4-4.8,0.7-7.1,1.1C242.5,159.6,246.5,153.7,247.9,147.1z"/>
		</g>
		<g>
			<path class="st5" d="M217.3,240.1c0,0-19-22.8-18.8-44.6h7.7c0,0-8.4-5.5-7.7-8.6c0.7-3.1,0.9-14.7,0.9-14.7l7,1.8
				c0,0-5.3-2.6-5.9-6.8s1.5-23.5,1.5-23.5s8.6,9,11.2,18.2c2.6,9.2,9.6,20,7.5,48.1S217.3,240.1,217.3,240.1z"/>
		</g>
		<g>
			<path class="st5" d="M227,242.3c0,0,20.6-13.7,25.2-31.3l-6.2-1.7c0,0,7.9-2.6,8.1-5.2c0.1-2.6,2.5-12,2.5-12l-6-0.1
				c0,0,4.8-1,6.3-4.2c1.4-3.2,3.9-19.3,3.9-19.3s-8.9,5.4-13,12.2c-4.1,6.8-12.1,14-16.6,37.1C226.6,240.8,227,242.3,227,242.3z"/>
		</g>
		<g>
			<g>
				<path class="st2" d="M207.2,163.5c0,0,0,0.1,0.1,0.2c0,0.2,0.1,0.4,0.2,0.7c0.1,0.6,0.3,1.5,0.6,2.7c0.3,1.2,0.6,2.6,0.9,4.3
					c0.3,1.7,0.7,3.6,1.1,5.7c0.8,4.2,1.7,9.3,2.6,14.9c0.9,5.6,1.7,11.8,2.5,18.4c0.7,6.5,1.3,12.8,1.8,18.4
					c0.4,5.7,0.7,10.8,0.9,15.1c0.1,2.1,0.2,4.1,0.2,5.8c0.1,1.7,0.1,3.2,0.1,4.4c0,1.2,0,2.1,0,2.8c0,0.3,0,0.5,0,0.7
					c0,0.2,0,0.2,0,0.2c0,0,0-0.1,0-0.2c0-0.2,0-0.4,0-0.7c0-0.7-0.1-1.6-0.1-2.8c0-1.2-0.1-2.7-0.2-4.4c-0.1-1.7-0.1-3.7-0.3-5.8
					c-0.2-4.3-0.5-9.4-1-15.1c-0.5-5.7-1.1-11.9-1.8-18.4c-0.8-6.5-1.6-12.7-2.4-18.3c-0.9-5.6-1.7-10.7-2.5-14.9
					c-0.4-2.1-0.7-4-1.1-5.7c-0.3-1.7-0.6-3.1-0.8-4.3c-0.2-1.2-0.4-2.1-0.5-2.7c-0.1-0.3-0.1-0.5-0.1-0.7
					C207.2,163.6,207.2,163.5,207.2,163.5z"/>
			</g>
		</g>
		<g>
			<path class="st5" d="M214.7,254.1c0,0-17.4-19.8-22.8-31.7l4.1-1.7c-3,0.5-6-0.8-8.3-2.7c-2.3-1.9-4-4.5-5.6-7l5.4-0.9
				c-4.9-1.4-9.2-4.7-11.8-9.1c6.4,1,12.1,4.5,16.8,8.9c3.8,3.5,7.1,7.6,10.2,11.8c1.5,2,2.9,4.2,4,6.5
				C209.6,234.1,214.7,246.8,214.7,254.1z"/>
		</g>
		<g>
			<g>
				<path class="st2" d="M252.5,180c0,0,0,0.1-0.1,0.2c-0.1,0.1-0.2,0.3-0.3,0.6c-0.3,0.5-0.6,1.3-1.1,2.2c-0.9,1.9-2.3,4.7-3.9,8.1
					c-1.6,3.4-3.5,7.5-5.4,12.1c-2,4.6-4.1,9.7-6.2,15.1c-2.1,5.4-3.9,10.6-5.6,15.3c-1.6,4.7-3,9-4.1,12.6c-1.1,3.6-2,6.5-2.6,8.6
					c-0.3,1-0.5,1.8-0.7,2.3c-0.1,0.3-0.1,0.4-0.2,0.6c0,0.1-0.1,0.2-0.1,0.2c0,0,0-0.1,0-0.2c0-0.2,0.1-0.4,0.2-0.6
					c0.1-0.6,0.4-1.4,0.6-2.4c0.5-2,1.4-5,2.5-8.6c1.1-3.6,2.5-7.9,4.1-12.7c1.6-4.7,3.5-9.9,5.6-15.3c2.1-5.4,4.2-10.5,6.2-15.1
					c2-4.6,3.9-8.7,5.5-12.1c1.6-3.4,3-6.2,4-8c0.5-0.9,0.9-1.6,1.1-2.2c0.1-0.2,0.2-0.4,0.3-0.6C252.4,180,252.5,180,252.5,180z"/>
			</g>
		</g>
		<g>
			<g>
				<path class="st2" d="M216.2,262.5c0,0,0-0.1-0.1-0.4c0-0.3-0.1-0.6-0.2-1c-0.1-0.9-0.4-2.2-0.7-3.8c-0.3-1.6-0.8-3.5-1.3-5.6
					c-0.6-2.1-1.3-4.4-2.2-6.7c-0.9-2.4-1.9-4.5-2.8-6.5c-1-2-1.9-3.7-2.7-5.1c-0.8-1.4-1.5-2.6-2-3.3c-0.2-0.4-0.4-0.7-0.6-0.9
					c-0.1-0.2-0.2-0.3-0.2-0.3c0,0,0.1,0.1,0.2,0.3c0.2,0.2,0.4,0.5,0.6,0.9c0.5,0.8,1.3,1.9,2.1,3.3c0.9,1.4,1.8,3.1,2.8,5.1
					c1,2,1.9,4.2,2.8,6.5c0.9,2.4,1.6,4.7,2.2,6.8c0.6,2.1,1,4,1.3,5.7c0.3,1.6,0.5,3,0.6,3.9c0,0.4,0.1,0.8,0.1,1.1
					C216.2,262.4,216.2,262.5,216.2,262.5z"/>
			</g>
		</g>
		<g>
			<rect x="201" y="257.9" class="st2" width="38.2" height="7.8"/>
		</g>
		<g>
			<polygon class="st2" points="204.7,265.7 208.6,288 231.6,288 235.7,265.7 			"/>
		</g>
		<g>
			<g>
				<path class="st5" d="M236.8,265.7c0,0.1-7.2,0.2-16.1,0.2c-8.9,0-16.1-0.1-16.1-0.2c0-0.1,7.2-0.2,16.1-0.2
					C229.6,265.5,236.8,265.6,236.8,265.7z"/>
			</g>
		</g>
	</g>
	<g class="st1">
		<g>
			<g>
				<rect x="53" y="8.7" class="st2" width="62" height="100.6"/>
			</g>
		</g>
		<g>
			<g>
				<rect x="50.9" y="8.7" class="st5" width="62" height="100.6"/>
			</g>
		</g>
		<g>
			<g>
				<rect x="53.5" y="10.8" class="st4" width="56.7" height="96.6"/>
			</g>
		</g>
		<g>
			<g>
				<g>
					<rect x="64.3" y="23.3" class="st5" width="34.9" height="71.5"/>
				</g>
			</g>
			<g>
				<g>
					<path class="st2" d="M64.3,69.5c-0.1-6.7,6-13.2,12.8-14.1c3.2-0.4,6.6,0.2,9.6-1c5.4-2.2,7.1-9.1,12.5-11.2l0.2,51.7H64.3
						V69.5z"/>
				</g>
			</g>
		</g>
	</g>
	<g class="st1">
		<g>
			<g>
				<path class="st6" d="M117.5,87.1h-0.8c-0.8,0-1.4-0.6-1.4-1.4V72.4c0-0.8,0.6-1.4,1.4-1.4h0.8c0.8,0,1.4,0.6,1.4,1.4v13.3
					C118.9,86.5,118.3,87.1,117.5,87.1z"/>
				<path class="st6" d="M217.5,88.9h-0.8c-0.8,0-1.4-0.6-1.4-1.4V74.2c0-0.8,0.6-1.4,1.4-1.4h0.8c0.8,0,1.4,0.6,1.4,1.4v13.3
					C218.9,88.3,218.3,88.9,217.5,88.9z"/>
				<path class="st6" d="M117.5,105.1h-0.8c-0.8,0-1.4-0.6-1.4-1.4V90.3c0-0.8,0.6-1.4,1.4-1.4h0.8c0.8,0,1.4,0.6,1.4,1.4v13.3
					C118.9,104.5,118.3,105.1,117.5,105.1z"/>
			</g>
			<path class="st6" d="M209.3,257.9h-84.4c-4.9,0-8.8-4-8.8-8.8V55c0-4.9,4-8.8,8.8-8.8h84.4c3,0,5.6,1.5,7.2,3.8
				c1,1.4,1.6,3.2,1.6,5.1v194.1C218.1,253.9,214.2,257.9,209.3,257.9z"/>
			<path class="st7" d="M216.5,65.5v178.8c0,1.6-1.3,2.8-2.8,2.8h-93.2c-1.5,0-2.8-1.3-2.8-2.8V65.5c0-0.7,0.1-1.3,0.2-1.9
				c0.3-1.3,1.4-2.3,2.8-2.3h92.9c1.3,0,2.5,0.9,2.8,2.3C216.5,64.2,216.5,64.9,216.5,65.5z"/>
			<path class="st8" d="M169.7,54c0,1.3-1.2,2.3-2.6,2.3s-2.6-1-2.6-2.3s1.2-2.3,2.6-2.3S169.7,52.7,169.7,54z"/>
			<path class="st7" d="M168.7,54c0,0.8-0.7,1.4-1.6,1.4s-1.6-0.6-1.6-1.4s0.7-1.4,1.6-1.4S168.7,53.2,168.7,54z"/>
			<rect x="122.5" y="69.4" class="st6" width="88" height="159.8"/>
			<path class="st4" d="M198.4,207.2h-63.9c-1.7,0-3.2-0.6-4.4-1.5c-1.1-0.9-1.8-2.2-1.8-3.6v-28c0-2.8,2.8-5,6.2-5h52.2h11.7
				c3.4,0,6.2,2.2,6.2,5v28C204.6,204.9,201.9,207.2,198.4,207.2z"/>
			<path class="st9" d="M195.9,185.1H137c-1,0-1.8-0.3-2.6-0.8c-1-0.7-1.6-1.9-1.6-3.2v-1.7c0-2.2,1.9-4,4.2-4h46.7h12.1
				c2.3,0,4.2,1.8,4.2,4v1.7C200.1,183.3,198.2,185.1,195.9,185.1z"/>
			<rect x="142.7" y="76.6" class="st9" width="47.6" height="4.8"/>
			<path class="st9" d="M195.9,200.2H137c-0.8,0-1.5-0.2-2.1-0.6c-1.2-0.7-2.1-2-2.1-3.4v-1.7c0-2.2,1.9-4,4.2-4h46.7h12.1
				c2.3,0,4.2,1.8,4.2,4v1.7C200.1,198.4,198.2,200.2,195.9,200.2z"/>
			<rect x="141.5" y="212.5" class="st9" width="49.9" height="5.3"/>
			<rect x="156.9" y="219.9" class="st9" width="19.1" height="2"/>
			<g>
				<path class="st10" d="M200.4,122.9c0,10.6-4.9,20.1-12.5,26.3c-5.9,4.8-13.3,7.7-21.5,7.7c-8.1,0-15.6-2.9-21.5-7.7
					c-7.6-6.2-12.5-15.7-12.5-26.3c0-18.8,15.2-34,34-34C185.2,89,200.4,104.2,200.4,122.9z"/>
				<g>
					<path class="st4" d="M166.5,157.5c-8,0-15.7-2.8-21.9-7.8c-8.1-6.6-12.7-16.4-12.7-26.8c0-19.1,15.5-34.6,34.6-34.6
						c19.1,0,34.6,15.5,34.6,34.6c0,10.4-4.6,20.2-12.7,26.8C182.2,154.7,174.4,157.5,166.5,157.5z M166.5,89.6
						c-18.4,0-33.4,15-33.4,33.4c0,10.1,4.5,19.5,12.3,25.9c5.9,4.8,13.4,7.5,21.1,7.5c7.7,0,15.2-2.7,21.1-7.5
						c7.8-6.4,12.3-15.8,12.3-25.9C199.8,104.5,184.9,89.6,166.5,89.6z"/>
				</g>
				<path class="st11" d="M186.7,146.6c-5.5,4.5-12.5,7.2-20.2,7.2c-7.7,0-14.7-2.7-20.2-7.2c0.7-2.5,2.7-8.1,3.8-9.6
					c1.4-1.9,12.6-6,12.8-6.7c0.1-0.4,0.1-3.9,0-5.9c-0.9-0.4-1.7-1-2.1-1.9c-0.4-0.7-0.9-1.6-1.4-2.7c-1.4,0.6-3.8-3.7-3.2-5.5
					c0.3-0.8,1-0.9,1.7-0.7c0-1.5,0.3-3.1,1.1-4.8c2.5-5.3,6.5-5,7.6-4.8c1.1-0.2,5-0.5,7.6,4.8c0.8,1.7,1.1,3.3,1.1,4.8
					c0.7-0.2,1.4-0.1,1.7,0.7c0.6,1.8-1.8,6.1-3.2,5.5c-0.5,1.1-1,2-1.4,2.7c-0.4,0.9-1.2,1.5-2.1,1.9c0,2-0.1,5.5,0,5.9
					c0.1,0.6,11.4,4.8,12.8,6.7C184,138.5,186,144.1,186.7,146.6z"/>
				<path class="st12" d="M197,149c0,6.4-5.2,11.7-11.7,11.7c-6.4,0-11.7-5.2-11.7-11.7c0-6.4,5.2-11.7,11.7-11.7
					C191.8,137.3,197,142.5,197,149z"/>
				<g>
					<path class="st4" d="M185.4,161c-6.6,0-12-5.4-12-12c0-6.6,5.4-12,12-12c6.6,0,12,5.4,12,12C197.3,155.6,192,161,185.4,161z
						 M185.4,137.6c-6.3,0-11.4,5.1-11.4,11.4c0,6.3,5.1,11.4,11.4,11.4c6.3,0,11.4-5.1,11.4-11.4
						C196.7,142.7,191.6,137.6,185.4,137.6z"/>
				</g>
				<path class="st13" d="M194.3,149c0,4.9-4,8.9-8.9,8.9c-4.9,0-8.9-4-8.9-8.9c0-4.9,4-8.9,8.9-8.9
					C190.3,140.1,194.3,144.1,194.3,149z"/>
				<g>
					<g>
						<path class="st4" d="M186.1,143.2v5.4h5.2v1.4h-5.2v5.5h-1.5V150h-5.2v-1.4h5.2v-5.4H186.1z"/>
						<path class="st4" d="M186.1,156.1h-1.5c-0.3,0-0.6-0.3-0.6-0.6v-4.9h-4.6c-0.3,0-0.6-0.3-0.6-0.6v-1.4c0-0.3,0.3-0.6,0.6-0.6
							h4.6v-4.9c0-0.3,0.3-0.6,0.6-0.6h1.5c0.3,0,0.6,0.3,0.6,0.6v4.9h4.6c0.3,0,0.6,0.3,0.6,0.6v1.4c0,0.3-0.3,0.6-0.6,0.6h-4.6
							v4.9C186.7,155.8,186.4,156.1,186.1,156.1z M185.2,154.9h0.3V150c0-0.3,0.3-0.6,0.6-0.6h4.6v-0.2h-4.6c-0.3,0-0.6-0.3-0.6-0.6
							v-4.9h-0.3v4.9c0,0.3-0.3,0.6-0.6,0.6H180v0.2h4.6c0.3,0,0.6,0.3,0.6,0.6V154.9z"/>
					</g>
				</g>
			</g>
			<path class="st14" d="M216.5,65.5v178.8c0,1.6-1.3,2.8-2.8,2.8h-0.3C185.2,187.1,144,61.3,144,61.3h69.5c1.3,0,2.5,0.9,2.8,2.3
				C216.5,64.2,216.5,64.9,216.5,65.5z"/>
			<g>
				<path class="st15" d="M209.1,258.2h-84c-5.1,0-9.3-4.2-9.3-9.3V55.2c0-5.1,4.2-9.3,9.3-9.3h84c5.1,0,9.3,4.2,9.3,9.3v193.7
					C218.4,254,214.3,258.2,209.1,258.2z M125.1,46.4c-4.8,0-8.7,3.9-8.7,8.7v193.7c0,4.8,3.9,8.7,8.7,8.7h84c4.8,0,8.7-3.9,8.7-8.7
					V55.2c0-4.8-3.9-8.7-8.7-8.7H125.1z"/>
			</g>
		</g>
	</g>
	<g class="st1">
		<g>
			<path class="st16" d="M319.3,295.6c0,0.1-70.2,0.2-156.7,0.2c-86.6,0-156.7-0.1-156.7-0.2s70.2-0.2,156.7-0.2
				C249.1,295.4,319.3,295.5,319.3,295.6z"/>
		</g>
	</g>
	<g class="st1">
		<g>
			<g>
				<g>
					<g>
						<g>
							<g>
								<g>
									<g>
										<g>
											<g>
												<g>
													<g>
														<g>
															<g>
																<g>
																	<path class="st4" d="M29.2,254.7l4.6-0.6c2.9,1.9,6.4,3,10.2,2.9c8.9-0.2,16.4-7.4,17-16.3
																		c0.7-10.3-7.6-19-18-18.8c-8.8,0.2-16.2,7.2-17,16c-0.4,4.4,0.9,8.5,3.2,11.7l0,0L29.2,254.7z"/>
																</g>
															</g>
														</g>
													</g>
													<g>
														<g>
															<g>
																<g>
																	<g>
																		<path class="st16" d="M29.2,254.7c0,0,0-0.1,0-0.3c0-0.2,0-0.5,0-1c0-0.8,0-2.1,0.1-3.6l-0.1,0c0,0,0,0,0,0
																			c0,0,0.1,0,0.1,0c0,0,0-0.1,0-0.1c-1.2-1.8-2.6-4.4-3.1-7.8c-0.2-1.7-0.2-3.6,0.1-5.5c0.4-1.9,1.1-4,2.3-5.9
																			c1.2-1.9,2.8-3.6,4.7-5.1c2-1.4,4.3-2.5,6.9-3c2.6-0.5,5.3-0.4,7.9,0.3c2.7,0.7,5.2,2.2,7.2,4.1
																			c1.1,1,1.9,2.1,2.7,3.3c0.4,0.6,0.7,1.2,1,1.9l0.4,1l0.2,0.5l0.2,0.5c0.9,2.6,1.1,5.4,0.7,8
																			c-0.3,2.6-1.4,5-2.7,7.1c-1.4,2-3.1,3.7-4.9,5c-1.9,1.2-3.9,2.1-5.8,2.5c-0.5,0.1-1,0.2-1.4,0.3
																			c-0.5,0.1-1,0.1-1.4,0.1c-0.9,0.1-1.8,0-2.7-0.1c-3.4-0.3-6.1-1.6-7.9-2.8c0,0,0,0,0,0c-1.5,0.2-2.6,0.3-3.4,0.4
																			c-0.4,0.1-0.7,0.1-0.9,0.1C29.3,254.7,29.2,254.7,29.2,254.7s0.1,0,0.3,0c0.2,0,0.5-0.1,0.9-0.1
																			c0.8-0.1,1.9-0.2,3.4-0.4l0,0c1.8,1.2,4.5,2.5,7.9,2.9c0.9,0.1,1.8,0.1,2.7,0.1c0.5,0,1,0,1.4-0.1
																			c0.5-0.1,1-0.2,1.5-0.3c2-0.4,4-1.3,5.9-2.5c1.9-1.3,3.6-2.9,5-5c1.4-2.1,2.4-4.5,2.8-7.2
																			c0.4-2.6,0.2-5.5-0.7-8.1l-0.2-0.5l-0.2-0.5c-0.1-0.3-0.3-0.7-0.4-1c-0.3-0.6-0.7-1.3-1-1.9
																			c-0.8-1.2-1.7-2.4-2.8-3.4c-2.1-2-4.7-3.5-7.4-4.2c-2.7-0.7-5.5-0.8-8.1-0.3c-2.6,0.5-5,1.6-7,3
																			c-2,1.4-3.6,3.2-4.8,5.2c-1.2,1.9-1.9,4-2.3,6c-0.3,2-0.4,3.9-0.1,5.6c0.5,3.5,1.9,6.1,3.2,7.9l0.1-0.1
																			c0,0,0,0,0,0c0,0-0.1,0-0.1,0c0,0,0,0,0,0c0,1.6,0,2.8,0,3.7c0,0.4,0,0.7,0,0.9C29.2,254.6,29.2,254.7,29.2,254.7
																			z"/>
																	</g>
																</g>
															</g>
														</g>
													</g>
												</g>
											</g>
										</g>
									</g>
								</g>
							</g>
						</g>
					</g>
				</g>
			</g>
		</g>
		<g>
			<g>
				<g>
					<g>
						<g>
							<g>
								<g>
									<g>
										<g>
											<g>
												<g>
													<g>
														<polygon class="st7" points="35.8,240.7 37.9,238.3 42.5,242.1 50.8,233.5 53,235.7 42.3,246.5 														"/>
													</g>
												</g>
											</g>
										</g>
									</g>
								</g>
							</g>
						</g>
					</g>
				</g>
			</g>
		</g>
	</g>
	<g class="st1">
		<g>
			<g>
				<g>
					<g>
						<path class="st16" d="M86,179.1c0.4-1.4,1.6-2.5,2.9-3c0.6-0.2,1.2-0.3,1.5-0.8c0.2-0.4,0.2-0.8,0.3-1.2
							c0.3-1.3,1.8-2.1,3-1.6c0.3,0.1,0.6,0.3,0.9,0.3c1.3,0,1.5-2.4,2.8-2.4c-0.3,0.4-0.7,0.9-0.7,1.5s0.3,1.1,0.8,1.3
							c1.4,0.4,2-2.3,3.4-2.1c0.8,0.1,1.3,1,2.1,0.9c0.3-0.1,0.5-0.3,0.8-0.4c0.8-0.5,2.1-0.2,2.6,0.6c0.4,0.7,0.5,1.8,1.3,2.1
							c0.5,0.1,1-0.2,1.4-0.5c0.3,0.7,0.5,1.5,0.5,2.3c1.6,0.1,2.9,1.7,2.7,3.3c0.8,0.2,1.7,0.4,2.4,0.9c0.7,0.5,1.2,1.3,1.1,2.2
							c0,0.2-0.1,0.4-0.1,0.6c0,0.2,0.1,0.4,0.3,0.6c0.5,0.6,1.1,1.2,1.5,1.9c0.3,0.7,0.2,1.8-0.6,2.1c-0.2,0.1-0.4,0.1-0.5,0.3
							c-0.1,0.1-0.1,0.3,0,0.4c0.2,0.6,0.5,1,0.9,1.5c0.3,0.5,0.6,1.1,0.5,1.6c-0.1,0.6-0.7,1.1-1.3,0.8c0.6,0.7,1.2,1.4,1.8,2.1
							c0.4,0.4,0.7,1,0.6,1.5c-0.2,0.7-1.2,0.7-1.9,0.3c-0.6-0.4-1-1-1.7-1.4c-0.3-0.1-0.5-0.2-0.8-0.4c-0.2-0.2-0.3-0.4-0.5-0.4
							c-0.5-0.1-0.7,0.6-0.5,1c0.2,0.4,0.7,0.6,1.2,0.8c0.4,0.2,0.9,0.6,0.8,1c0,0.2-0.2,0.4-0.2,0.7c0,0.8,1.2,0.9,1.6,1.6
							c0.3,0.5,0.2,1.1,0,1.7c-0.2,0.7-0.9,1.5-1.5,1c-0.2-0.1-0.3-0.4-0.5-0.6c-0.2-0.2-0.5-0.3-0.8-0.3c-0.7-0.2-1.3-0.6-1.8-1.1
							c0.9,0.4,1.8,1,1.8,1.9c0,0.4-0.2,0.8-0.3,1.1c-0.2,0.7-0.2,1.5-0.4,2.3c-0.2,0.7-0.8,1.5-1.6,1.4c0.5,0.6,0.6,1.5,0.2,2.2
							s-1.3,1-2.1,0.7c-0.2-0.1-0.4-0.2-0.6-0.2c-0.2,0-0.4,0.2-0.6,0.3c-1.1,0.8-2.7,0.9-3.9,0.3c0.2-0.2,0.3-0.3,0.5-0.5
							c-1.3,0.4-2.7,0.9-4,0.7c-1.4-0.2-2.7-1.3-2.7-2.6c0-0.6,0.2-1.3-0.3-1.7c-0.3-0.3-0.8-0.2-1.2-0.2c-1.7,0.2-3.4,0.4-5.1,0.6
							c-0.8,0.1-1.7,0.2-2.5-0.2c-0.8-0.4-1.3-1.3-0.9-2c-0.7-0.5-1.5-0.8-2.3-0.9c-0.9-0.1-1.9,0.1-2.8,0.1c-0.9,0-2-0.4-2.3-1.3
							c-0.4-0.9,0.5-2.1,1.4-1.8c-0.7-1.2-3-0.2-3.9-1.4c-0.7-0.9,0.4-2.1,0.7-3.2c-0.3-0.3-0.8-0.3-1.1-0.6
							c-0.7-0.6-0.3-1.7,0.3-2.4c0.6-0.7,1.3-1.5,1.1-2.3c-0.2-0.9-1.3-1.5-1.3-2.4c0-0.5,0.5-0.9,1-0.9c-0.1-1.8,3.2-2,3.3-3.7
							c0-0.1,0-0.3-0.1-0.4c-0.1-0.1-0.2-0.2-0.3-0.2c-0.5-0.2-1.1-0.2-1.7-0.3c-0.6-0.1-1.2-0.5-1.2-1c-0.1-0.6,0.9-1,1.1-0.5
							c0.3-0.7,1.4-0.9,1.9-0.4c0.1-0.6,0.8-0.9,1.5-0.9c0.6,0.1,1.2,0.4,1.7,0.7"/>
					</g>
				</g>
			</g>
			<g>
				<g>
					<g>
						<path class="st17" d="M100.9,192c-1.5-1.8-3.9-2.7-6.3-3.2c-1-0.2-2-0.3-3,0c-1,0.3-1.8,1.2-1.8,2.2l0.9,1.4
							c1,2.5,3.9,3.5,5.9,5.3c0.9,0.8,1.8,1.8,2.9,1.7c0.6,0,1.2-0.4,1.6-0.8C102.7,196.8,102.4,193.8,100.9,192z"/>
					</g>
				</g>
			</g>
			<g>
				<g>
					<g>
						<path class="st16" d="M106.8,202.8c0.4-2.5-1.3-5.1-3.7-5.8c0.3-1.5-0.9-3.1-2.4-3.7c-1.5-0.6-3.1-0.5-4.7-0.4
							c-2.4-2.8-7.2-3.1-9.9-0.7c-2.9-1.5-6.7,0-9,2.3c-0.6,0.6-1.1,1.2-1.8,1.6c-0.5,0.3-1.1,0.4-1.7,0.6c-3.1,1.1-4.8,4.7-4.5,7.9
							c0.1,0.5,0.1,1,0.1,1.6c-0.1,0.7-0.5,1.3-0.8,1.9c-0.6,1.4-0.6,3,0.1,4.3c0.5,1.1,1.5,2.1,1.6,3.4c0,0.6-0.2,1.3-0.1,1.9
							c0.3,1.8,2.8,2.5,3.4,4.2c0.1,0.4,0.1,0.7,0.2,1.1c0.2,0.7,0.6,1.4,1.2,1.9c0.5,0.3,1.1,0.6,1.4,1.1c0.2,0.4,0.3,0.8,0.4,1.3
							c0.3,1,4.3,3.6,5.4,3.7l24.5-12.9c1.6-1.4,2.2-3.8,1.4-5.8c-0.1-0.3-0.3-0.7-0.3-1c0.1-0.3,0.3-0.5,0.4-0.8
							c1.1-1.7,0.1-3.9-1-5.6c-0.2-0.2-0.3-0.5-0.4-0.8C106.6,203.6,106.7,203.2,106.8,202.8z"/>
					</g>
				</g>
			</g>
			<g>
				<g>
					<g>
						<path class="st18" d="M99.8,206.6c-2.2-4.4-7.6-7.9-13-7.7c-3.4,0.1-5.5,1.2-7,1.8c-3.4,1.3-5.1,4.3-5.1,4.3
							c-1.2,1-3.7,8.2-1.3,13.2c2.6,5.6,6.1,12.3,8.9,16c5.8,7.4,12.5,5,12.5,5c0,0,3,6.3,3,6.3l8.5,7.2l7.5-12.3l1.6-2.7
							L99.8,206.6z"/>
					</g>
				</g>
			</g>
			<g>
				<g>
					<g>
						<path class="st19" d="M93.1,226.6c-0.2-0.4-0.6-0.6-1.1-0.7c-0.8-0.2-1.7,0.1-2.1,0.9c-0.4,0.7-0.1,1.5,0.4,2.2l0,0
							c0.6,0.3,1.1,0.7,1.7,0.4c0.1,0,0.2-0.1,0.3-0.1c0.4-0.2,0.8-0.6,1-1.1C93.4,227.7,93.4,227.1,93.1,226.6z"/>
					</g>
				</g>
			</g>
			<g>
				<g>
					<g>
						<g>
							<g>
								<g>
									<g>
										<g>
											<path class="st16" d="M79.5,223.8c0.3,0.6,1,0.8,1.6,0.5c0.6-0.3,0.8-1,0.6-1.5c-0.3-0.6-1-0.8-1.6-0.5
												C79.4,222.6,79.2,223.3,79.5,223.8z"/>
										</g>
									</g>
								</g>
							</g>
						</g>
					</g>
				</g>
			</g>
			<g>
				<g>
					<g>
						<g>
							<g>
								<g>
									<g>
										<g>
											<g>
												<path class="st16" d="M76.9,220.4c0.2,0.1,0.7-1,1.8-1.6c1.1-0.6,2.2-0.5,2.3-0.7c0-0.1-0.2-0.3-0.7-0.3
													c-0.5-0.1-1.2,0-1.9,0.4c-0.7,0.4-1.1,1-1.3,1.4C76.8,220,76.8,220.3,76.9,220.4z"/>
											</g>
										</g>
									</g>
								</g>
							</g>
						</g>
					</g>
				</g>
			</g>
			<g>
				<g>
					<g>
						<g>
							<g>
								<g>
									<g>
										<g>
											<path class="st16" d="M88.3,225.6c0-0.1-0.8,0.2-2,0.7c-0.3,0.1-0.6,0.2-0.8,0.1c-0.2-0.2-0.2-0.5-0.3-1
												c-0.1-0.8-0.2-1.7-0.4-2.6c-0.5-3.7-1.1-6.8-1.2-6.7c-0.2,0,0.2,3.1,0.7,6.8c0.1,0.9,0.3,1.8,0.4,2.6
												c0.1,0.4,0.1,0.9,0.5,1.2c0.2,0.2,0.5,0.2,0.7,0.2c0.2,0,0.4-0.1,0.5-0.2C87.6,226,88.3,225.6,88.3,225.6z"/>
										</g>
									</g>
								</g>
							</g>
						</g>
					</g>
				</g>
			</g>
			<g>
				<g>
					<g>
						<g>
							<g>
								<g>
									<g>
										<path class="st19" d="M94.8,239.3c0,0,5.7-2.7,9.3-8.9c0,0,0.3,7.3-8.3,11L94.8,239.3z"/>
									</g>
								</g>
							</g>
						</g>
					</g>
				</g>
			</g>
			<g>
				<g>
					<g>
						<g>
							<g>
								<g>
									<g>
										<g>
											<g>
												<g>
													<path class="st16" d="M75.4,218c0.3,0.2,1.1-0.5,2.1-1c1-0.5,2-0.7,2.1-1c0-0.2-0.2-0.4-0.7-0.5
														c-0.5-0.1-1.2,0-1.9,0.3c-0.7,0.3-1.2,0.8-1.5,1.3C75.2,217.6,75.2,217.9,75.4,218z"/>
												</g>
											</g>
										</g>
									</g>
								</g>
							</g>
						</g>
					</g>
				</g>
			</g>
			<g>
				<g>
					<g>
						<g>
							<g>
								<g>
									<g>
										<g>
											<path class="st16" d="M91.9,217.4c0.3,0.6,0.1,1.3-0.5,1.6c-0.6,0.3-1.3,0.1-1.6-0.4c-0.3-0.6-0.1-1.3,0.5-1.6
												C90.9,216.7,91.6,216.9,91.9,217.4z"/>
										</g>
									</g>
								</g>
							</g>
						</g>
					</g>
				</g>
			</g>
			<g>
				<g>
					<g>
						<g>
							<g>
								<g>
									<g>
										<g>
											<g>
												<path class="st16" d="M92.5,212.4c-0.1,0.2-1.2,0-2.3,0.6c-1.1,0.6-1.7,1.6-1.9,1.5c-0.1,0-0.1-0.3,0.1-0.8
													c0.2-0.4,0.7-1,1.4-1.4c0.7-0.4,1.4-0.4,1.9-0.3C92.2,212.1,92.5,212.3,92.5,212.4z"/>
											</g>
										</g>
									</g>
								</g>
							</g>
						</g>
					</g>
				</g>
			</g>
			<g>
				<g>
					<g>
						<g>
							<g>
								<g>
									<g>
										<g>
											<g>
												<g>
													<path class="st16" d="M90.1,208c-0.1,0.4-1.1,0.5-2.2,1.1c-1.1,0.5-1.9,1.2-2.2,1c-0.2-0.1-0.1-0.4,0.1-0.9
														c0.3-0.4,0.8-1,1.5-1.3c0.7-0.3,1.5-0.4,2-0.3C89.9,207.6,90.1,207.8,90.1,208z"/>
												</g>
											</g>
										</g>
									</g>
								</g>
							</g>
						</g>
					</g>
				</g>
			</g>
			<g>
				<g>
					<g>
						<g>
							<g>
								<g>
									<g>
										<path class="st18" d="M102.7,215c-0.3-0.6-0.4-2.4,0.1-2.8c1.5-1.1,4.4-2.6,6.6,1.4c3.1,5.5-3.1,7.5-3.2,7.3
											C106.3,220.8,103.9,217.1,102.7,215z"/>
									</g>
								</g>
							</g>
						</g>
					</g>
				</g>
			</g>
			<g>
				<g>
					<g>
						<g>
							<g>
								<g>
									<g>
										<g>
											<path class="st19" d="M106.7,218c0,0,0.1,0,0.3,0c0.2,0,0.5-0.1,0.7-0.4c0.5-0.5,0.4-1.7-0.1-2.7c-0.3-0.5-0.6-0.9-1-1.2
												c-0.4-0.3-0.8-0.4-1.1-0.3c-0.3,0.1-0.4,0.4-0.4,0.6c0,0.2,0.1,0.3,0.1,0.3c0,0-0.2,0-0.3-0.3c0-0.1,0-0.3,0-0.5
												c0.1-0.2,0.2-0.3,0.5-0.4c0.4-0.2,1,0,1.5,0.3c0.5,0.3,0.9,0.8,1.2,1.3c0.6,1.1,0.6,2.5-0.1,3.2c-0.3,0.3-0.7,0.4-1,0.3
												C106.8,218.2,106.7,218.1,106.7,218z"/>
										</g>
									</g>
								</g>
							</g>
						</g>
					</g>
				</g>
			</g>
			<g>
				<g>
					<g>
						<path class="st16" d="M72.1,219c0.7-1.3,0.9-2.7,0.1-3.9c0.9-0.2,1.1-1.6,1.2-2.4c0.1-0.9,0.4-1.5,0-2.2
							c-0.1-0.1-0.2-0.3-0.2-0.5c0-0.3,0.2-0.5,0.4-0.7c1-1,1.4-2.6,1-3.9c1.5-0.1,2.9-0.6,4.1-1.5c1,0.5,2.3,0.5,3.3-0.1
							c1-0.6,1.6-1.7,1.6-2.9c0.7,0.5,1.7,0.6,2.5,0.3c0.8-0.2,1.6-0.7,2.4-1.1c0.5,1.7,2.4,2.8,4.1,2.4c0.2,0,0.5-0.1,0.7,0
							c0.2,0.1,0.2,0.4,0.3,0.7c0.2,1.5,1.9,2.7,3.4,2.3c-0.5,1.2,0.5,2.8,1.8,2.8c0.3,0,0.6,0,0.7,0.3c0,0.1,0,0.2,0,0.3
							c-0.1,0.8-0.2,1.6,0.1,2.3c0.3,0.7,1.2,1.2,1.9,0.9c-0.2,0.5-0.3,1.1,0,1.6c0.3,0.5,1,0.7,1.4,0.3c0.2-0.2,2.6-2.2,2.6-2.5
							c0.4-3-2.9-4.2-4.5-6.8c-1.6-2.5-3.9-4.6-6.5-6.2c-1.1-0.7-2.2-1.2-3.4-1.6c-1.4-0.4-2.8-0.5-4.3-0.6
							c-1.9-0.1-3.8-0.2-5.6,0.3c-3.4,0.9-5.9,3.7-7.9,6.5c-0.8,1.1-1.6,2.2-2,3.4c-0.6,1.5-0.7,3.1-0.7,4.7c0,2.3,0.2,4.6,1.1,6.8"
							/>
					</g>
				</g>
			</g>
			<g>
				<g>
					<g>
						<path class="st20" d="M70,217.7c0,0-0.1-0.3,0-0.8c0-0.2,0.1-0.6,0.1-0.9c0-0.4-0.1-0.8-0.3-1.2c-0.2-0.4-0.5-0.9-0.8-1.4
							c-0.3-0.5-0.7-1-0.9-1.7c-0.2-0.6-0.3-1.4-0.2-2.1c0-0.4,0.1-0.8,0.3-1.2c0.1-0.4,0.3-0.8,0.5-1.1c0.2-0.4,0.4-0.8,0.4-1.2
							c0.1-0.4,0-0.9,0-1.3c-0.1-0.9-0.1-1.9,0.2-2.9c0.2-1,0.6-1.9,1.2-2.8c0.3-0.4,0.7-0.8,1.1-1.2c0.4-0.4,0.9-0.7,1.4-1
							c0.2-0.1,0.5-0.2,0.8-0.3c0.3-0.1,0.5-0.2,0.8-0.3c0.5-0.2,1-0.4,1.5-0.8c0.4-0.4,0.8-0.8,1.3-1.2c0.4-0.4,0.9-0.8,1.4-1.1
							c0.5-0.3,1-0.6,1.6-0.9c0.6-0.3,1.2-0.5,1.8-0.6c1.2-0.3,2.6-0.2,3.8,0.3c0.1,0.1,0.2,0.1,0.4,0.2l-0.1,0
							c1.5-1.3,3.5-1.8,5.3-1.6c1.8,0.2,3.6,1,4.7,2.3l-0.1,0c0.8,0,1.7-0.1,2.5,0c0.8,0.1,1.6,0.2,2.4,0.5c0.7,0.3,1.3,0.9,1.8,1.5
							c0.4,0.6,0.6,1.4,0.5,2.2l-0.1-0.1c1.2,0.4,2.2,1.2,2.8,2.1c0.6,1,1,2,0.9,3.1c0,0.3,0,0.5-0.1,0.7c0,0.2-0.1,0.5-0.1,0.7
							c0,0.2,0,0.5,0.1,0.7c0.1,0.2,0.2,0.4,0.3,0.6c0.5,0.7,0.8,1.4,1.1,2.1c0.2,0.7,0.4,1.3,0.3,1.9c0,0.6-0.2,1-0.4,1.4
							c-0.2,0.3-0.4,0.6-0.5,0.7c-0.1,0.2-0.1,0.3-0.1,0.3c0,0,0-0.1,0.1-0.3c0.1-0.2,0.3-0.4,0.5-0.7c0.2-0.3,0.3-0.8,0.3-1.3
							c0-0.6-0.1-1.2-0.3-1.9c-0.2-0.7-0.6-1.4-1.1-2.1c-0.1-0.2-0.2-0.4-0.3-0.6c-0.1-0.2-0.1-0.5-0.1-0.7c0-0.2,0.1-0.5,0.1-0.7
							c0-0.2,0.1-0.5,0.1-0.7c0-1-0.3-2.1-0.9-3c-0.6-0.9-1.6-1.7-2.8-2.1l-0.1,0l0-0.1c0.1-0.7-0.1-1.4-0.5-2
							c-0.4-0.6-1-1.1-1.7-1.5c-0.7-0.3-1.5-0.5-2.3-0.5c-0.8-0.1-1.6,0-2.5,0l0,0l0,0c-1.1-1.3-2.8-2.1-4.6-2.3
							c-1.8-0.2-3.7,0.3-5.1,1.6l0,0l-0.1,0c-0.1-0.1-0.2-0.1-0.3-0.2c-1.2-0.5-2.5-0.6-3.7-0.3c-0.6,0.1-1.2,0.3-1.7,0.6
							c-0.6,0.3-1.1,0.5-1.6,0.9c-0.5,0.3-1,0.7-1.4,1.1c-0.4,0.4-0.8,0.8-1.3,1.2c-0.2,0.2-0.5,0.4-0.7,0.5
							c-0.3,0.1-0.5,0.2-0.8,0.3c-0.3,0.1-0.5,0.2-0.8,0.3c-0.3,0.1-0.5,0.2-0.8,0.3c-0.5,0.2-0.9,0.6-1.3,0.9
							c-0.4,0.4-0.7,0.8-1,1.2c-0.6,0.9-1,1.8-1.2,2.8c-0.2,1-0.3,1.9-0.2,2.8c0,0.5,0.1,0.9,0,1.4c-0.1,0.5-0.3,0.9-0.5,1.2
							c-0.2,0.4-0.4,0.7-0.5,1.1c-0.1,0.4-0.2,0.8-0.3,1.1c-0.1,0.7,0,1.5,0.2,2.1c0.2,0.6,0.5,1.2,0.8,1.7c0.3,0.5,0.6,0.9,0.8,1.4
							c0.2,0.4,0.3,0.9,0.2,1.2c0,0.4-0.1,0.7-0.1,0.9c0,0.2,0,0.4,0,0.6C70,217.6,70,217.7,70,217.7z"/>
					</g>
				</g>
			</g>
			<g>
				<g>
					<g>
						<path class="st20" d="M82.9,192.4c0,0-0.2,0-0.5,0c-0.3,0-0.8,0.1-1.4,0.3c-0.6,0.2-1.2,0.6-1.7,1.3c-0.5,0.6-0.8,1.5-0.8,2.4
							c0,0.3,0,0.5,0.1,0.8c0.1,0.2,0.2,0.5,0.4,0.6l0.2,0.1l-0.3,0.1c-0.7,0.2-1.3,0.6-1.6,1.1c-0.3,0.5-0.4,1.1-0.4,1.5
							c0,0.5,0.2,0.8,0.3,1c0.1,0.2,0.2,0.3,0.2,0.3c0,0,0,0-0.1-0.1c0-0.1-0.1-0.1-0.2-0.2c-0.1-0.2-0.3-0.6-0.3-1.1
							c-0.1-0.5,0-1.1,0.4-1.6c0.3-0.6,0.9-1.1,1.7-1.2l0,0.2c-0.3-0.1-0.4-0.4-0.5-0.7c-0.1-0.3-0.1-0.5-0.1-0.8
							c0-1,0.4-1.9,0.9-2.5c0.5-0.7,1.2-1.1,1.8-1.3c0.6-0.2,1.1-0.3,1.4-0.3c0.2,0,0.3,0,0.4,0C82.9,192.4,82.9,192.4,82.9,192.4z"
							/>
					</g>
				</g>
			</g>
			<g>
				<g>
					<g>
						<path class="st20" d="M95.4,193.9c0,0,0,0.1-0.1,0.3c-0.1,0.2-0.2,0.5-0.4,0.8c-0.2,0.3-0.5,0.7-0.9,0.9
							c-0.4,0.3-1,0.5-1.6,0.3l0.1-0.1c0,0.1,0,0.2,0,0.3c0,0.1,0,0.2-0.1,0.3c-0.2,0.6-0.5,1.2-0.9,1.6c-0.4,0.4-0.8,0.7-1.2,0.9
							c-0.4,0.2-0.7,0.2-1,0.3c-0.2,0-0.4,0-0.4,0c0,0,0.5,0,1.3-0.4c0.4-0.2,0.8-0.5,1.2-0.9c0.4-0.4,0.7-0.9,0.9-1.5
							c0-0.1,0-0.2,0.1-0.3c0-0.1,0-0.2,0-0.3l0-0.1l0.1,0c0.5,0.1,1.1-0.1,1.5-0.3c0.4-0.2,0.7-0.6,0.9-0.9
							C95.2,194.3,95.3,193.9,95.4,193.9z"/>
					</g>
				</g>
			</g>
			<g>
				<g>
					<g>
						<path class="st20" d="M101.1,197.4c0,0,0,0,0,0.1c0,0.1,0,0.2,0,0.3c0,0.3-0.2,0.7-0.6,1.1c-0.4,0.4-1,0.6-1.7,0.7
							c-0.3,0.1-0.7,0.1-1.1,0.1c-0.4,0-0.8,0-1.1-0.3c0,0-0.1,0-0.1-0.1l0.2,0c-0.3,0.7-0.7,1.4-1.1,1.9c-0.4,0.5-1,0.9-1.5,1
							c-0.5,0.2-0.9,0.1-1.2,0.1c-0.1,0-0.2-0.1-0.3-0.1c-0.1,0-0.1,0-0.1-0.1c0,0,0.2,0,0.4,0.1c0.3,0,0.7,0,1.1-0.1
							c0.5-0.2,1-0.5,1.4-1c0.4-0.5,0.8-1.1,1.1-1.8l0.1-0.1l0.1,0.1c0,0,0,0,0.1,0.1c0.3,0.2,0.7,0.3,1,0.2c0.4,0,0.7-0.1,1-0.1
							c0.7-0.1,1.2-0.3,1.6-0.6c0.4-0.3,0.5-0.7,0.6-1C101.1,197.6,101.1,197.4,101.1,197.4z"/>
					</g>
				</g>
			</g>
			<g>
				<g>
					<g>
						<path class="st20" d="M96.2,174.4c0,0-0.1,0.1-0.2,0.2c-0.1,0.1-0.3,0.4-0.4,0.7c-0.1,0.4-0.1,0.8,0.2,1.3
							c0.2,0.5,0.6,0.9,1,1.4l0.1,0.1l-0.1,0c-0.6,0.3-1.2,0.9-1.6,1.6c-0.4,0.7-0.4,1.7,0,2.5c0.4,0.7,1.1,1.3,1.8,1.4l0.3,0
							l-0.2,0.1c-0.9,0.5-1.4,1.3-1.6,2.1c-0.2,0.8,0,1.5,0.2,2.1c0.3,0.5,0.6,0.9,0.9,1.1c0.3,0.2,0.4,0.3,0.4,0.3c0,0,0,0-0.1-0.1
							c-0.1,0-0.2-0.1-0.3-0.2c-0.3-0.2-0.6-0.6-0.9-1.1c-0.3-0.6-0.5-1.3-0.3-2.2c0.2-0.8,0.8-1.7,1.7-2.2l0,0.2
							c-0.8-0.1-1.6-0.7-2-1.5c-0.2-0.4-0.3-0.9-0.3-1.4c0-0.5,0.1-0.9,0.3-1.3c0.4-0.8,1-1.4,1.7-1.7l0,0.1c-0.4-0.5-0.8-1-1-1.4
							c-0.2-0.5-0.2-1-0.1-1.4c0.1-0.4,0.3-0.6,0.5-0.8C96,174.5,96.1,174.5,96.2,174.4C96.2,174.4,96.2,174.4,96.2,174.4z"/>
					</g>
				</g>
			</g>
			<g>
				<g>
					<g>
						<path class="st20" d="M112.7,181c0,0,0,0-0.1,0.1c0,0.1-0.1,0.2-0.2,0.3c-0.2,0.2-0.5,0.6-1,0.9c-0.5,0.3-1.1,0.6-1.9,0.7
							c-0.8,0.1-1.7,0.1-2.5-0.2l0.1-0.1c0,1.1-0.5,2.3-1.6,3.1c-1.1,0.8-2.6,0.8-3.6,0l0.1-0.1c0.1,0.5,0,0.9-0.2,1.3
							c-0.2,0.4-0.4,0.7-0.6,1c-0.5,0.6-1.1,0.9-1.6,1.1c-0.5,0.2-0.9,0.3-1.2,0.4c-0.3,0.1-0.4,0.1-0.4,0.1c0,0,0.1-0.1,0.4-0.2
							c0.3-0.1,0.7-0.2,1.2-0.5c0.5-0.2,1-0.6,1.5-1.1c0.5-0.5,0.9-1.3,0.7-2.2l0-0.2l0.2,0.1c0.9,0.7,2.3,0.7,3.3-0.1
							c1-0.7,1.4-1.9,1.5-2.9l0-0.1l0.1,0c0.8,0.3,1.7,0.4,2.4,0.2c0.7-0.1,1.4-0.4,1.8-0.7C112.3,181.5,112.6,181,112.7,181z"/>
					</g>
				</g>
			</g>
			<g>
				<g>
					<g>
						<path class="st20" d="M111.3,192.3c0,0,0,0,0,0.1c0,0.1-0.1,0.2-0.2,0.3c-0.3,0.2-0.7,0.4-1.3,0.5c-0.6,0.1-1.3,0-2.1-0.4
							c-0.7-0.4-1.3-1.1-1.6-2l0,0l0.2,0c-0.5,0.8-1.3,1.3-2.1,1.5c-0.8,0.3-1.5,0.3-2.1,0.2c-0.6-0.1-1.1-0.2-1.4-0.4
							c-0.3-0.1-0.5-0.2-0.5-0.2c0,0,0.7,0.3,1.8,0.5c0.6,0.1,1.3,0,2-0.2c0.7-0.3,1.5-0.7,2-1.5l0.1-0.2l0.1,0.2l0,0
							c0.3,0.8,0.9,1.5,1.5,1.9c0.7,0.4,1.4,0.5,2,0.4c0.6-0.1,1-0.2,1.3-0.4C111.3,192.5,111.3,192.2,111.3,192.3z"/>
					</g>
				</g>
			</g>
			<g>
				<g>
					<g>
						<path class="st20" d="M84.2,181.2c0,0,0,0.8,0.7,1.8c0.3,0.5,0.8,1.1,1.5,1.5c0.7,0.4,1.6,0.6,2.5,0.6c0.5,0,1-0.2,1.4-0.4
							l0.1,0l0,0.1c0.1,0.7,0.4,1.4,0.8,1.9c0.3,0.5,0.7,0.9,1.1,1.2c0.2,0.1,0.3,0.3,0.5,0.4c0.2,0.1,0.3,0.1,0.4,0.1
							c0.1,0,0.2-0.1,0.2-0.2c0-0.1,0-0.1,0-0.1c0,0,0,0,0,0.1c0,0.1-0.1,0.2-0.2,0.2c-0.1,0.1-0.3,0-0.5,0
							c-0.2-0.1-0.3-0.2-0.5-0.4c-0.4-0.3-0.8-0.7-1.1-1.2c-0.4-0.5-0.7-1.2-0.8-1.9l0.1,0.1c-0.5,0.2-1,0.3-1.5,0.4
							c-1,0.1-1.9-0.2-2.6-0.6c-0.7-0.4-1.2-1-1.5-1.5c-0.3-0.5-0.5-1-0.5-1.4c0-0.2,0-0.3,0-0.4C84.2,181.3,84.2,181.2,84.2,181.2z
							"/>
					</g>
				</g>
			</g>
			<g>
				<g>
					<g>
						<path class="st16" d="M92.2,225.1c-0.2,0,0.2,1.2-0.6,2.3c-0.7,1.1-2,1.4-2,1.6c0,0.1,0.3,0.1,0.9,0c0.5-0.1,1.2-0.5,1.7-1.2
							c0.4-0.7,0.5-1.4,0.4-1.9C92.5,225.3,92.3,225.1,92.2,225.1z"/>
					</g>
				</g>
			</g>
		</g>
		<g>
			<g>
				<path class="st10" d="M97.7,245c0,0,5,32.9,11,38.6c6.4,6.2,18,9.2,18,9.2s15.4,6.1,20.7,4.8l9.7-33.1c0,0-0.4-1.9-2.6-2
					c-1,0-3.7,1.3-5,1c-5-1.2-16.7-19.1-16.7-19.1s-11.1-15.4-20.6-14c-6.5,0.9-9.2,3.8-11.7,10.4C99.8,242.4,98.9,243.8,97.7,245
					L97.7,245z"/>
			</g>
			<g>
				<polygon class="st10" points="97.7,245 93.4,267 73.3,261.3 69.9,273 103.7,288.3 110.4,260.5 				"/>
			</g>
			<g>
				<g>
					<path class="st16" d="M143,283.7c-0.1,0,1.4-4.1,3.3-9.2c1.9-5,3.5-9.1,3.6-9c0.1,0-1.4,4.1-3.3,9.2
						C144.7,279.7,143.1,283.8,143,283.7z"/>
				</g>
			</g>
			<g>
				<g>
					<path class="st16" d="M142.6,279.1c-0.1,0,0.7-2.5,1.8-5.5c1.1-3,2.1-5.4,2.2-5.4c0.1,0-0.7,2.5-1.8,5.5
						C143.7,276.7,142.7,279.2,142.6,279.1z"/>
				</g>
			</g>
			<g>
				<g>
					<path class="st16" d="M97.2,251.4c0.1,0,0.2,2.3,0.3,5.1c0.1,1.4,0.1,2.7,0.2,3.6c0.1,0.9,0.1,1.5,0.1,1.5c0,0-0.2-0.6-0.3-1.5
						c-0.1-0.9-0.2-2.2-0.3-3.6c-0.1-1.4-0.1-2.7,0-3.6C97.1,252,97.1,251.4,97.2,251.4z"/>
				</g>
			</g>
			<g class="st21">
				<polygon points="86.1,280.3 93.6,277.1 97.7,262.6 94.9,280.4 89.4,281.8 				"/>
			</g>
			<g class="st21">
				<g>
					<path d="M148.4,268.4c-0.5-0.3-1.1-0.1-1.5,0.3c-0.4,0.4-0.6,1-0.9,1.6c-1.5,3.7-2.9,7.5-4.4,11.2c-0.2,0.5-0.4,1.1-0.4,1.7
						c0.1,0.6,0.5,1.1,1,1.1c0.5-0.1,0.8-0.6,1-1.1c2.1-4.7,3.9-9.6,5.4-14.6"/>
				</g>
			</g>
		</g>
		<g>
			<g>
				<g>
					<path class="st18" d="M42.3,264.2c0,0,2.7-3.6,4.3-4.4c1.3-0.6,8.8-1.9,9.7-1.8c0.9,0.2,17.1,3.7,17.1,3.7l-2.1,7l-1-0.5
						c0,0-3.3,1.6-5.7,0.9c-2.5-0.8-5.7-3-5.7-3l-2.2,0.8c0,0,2.4,0.8,2.6,1.8S58,270,58,270l-0.1,0.4c-0.2,0.8-0.9,1.3-1.7,1.1
						c-1.4-0.3-3.5-0.8-4-1.3c-0.2-0.2-1.2-2-1.2-2c-1.5-1.1-1.5-2.1-1.4-2.8c0.2-1.3,1.5-2.7,1.5-2.7l-2.7-0.1
						C48.5,262.6,44.1,267.1,42.3,264.2z"/>
				</g>
			</g>
			<g>
				<g>
					<path class="st18" d="M65,263c-3.3,0-6.4-0.4-8.8,0.2c-0.6,0.2-1.3,0.4-1.8,0.9c-0.5,0.5-0.7,1.2-0.3,1.8
						c0.3,0.5,0.9,0.7,1.5,0.7c0.6,0,1.1-0.1,1.7-0.1c1.4,0,2.7,0.5,3.9,1.2c1.2,0.6,2.4,1.3,3.7,1.6c1.3,0.3,4.5,0,5.4-1"/>
				</g>
				<g>
					<g>
						<path class="st19" d="M70.2,268.4c0,0-0.1,0.1-0.2,0.2c-0.2,0.1-0.4,0.3-0.8,0.4c-0.7,0.3-1.8,0.5-3.2,0.5
							c-0.7,0-1.5-0.1-2.2-0.4c-0.8-0.3-1.5-0.7-2.3-1.1c-0.8-0.4-1.6-0.9-2.5-1.1c-0.5-0.1-0.9-0.2-1.4-0.3c-0.5,0-1,0.1-1.5,0.1
							c-0.5,0-1.1,0-1.6-0.3c-0.5-0.3-0.8-0.9-0.7-1.4c0.1-0.5,0.4-1,0.8-1.3c0.4-0.3,0.9-0.5,1.3-0.6c1.8-0.5,3.4-0.4,4.8-0.4
							c1.3,0.1,2.4,0.1,3.2,0.2c0.8,0,1.2,0.1,1.2,0.1c0,0-0.1,0-0.3,0c-0.2,0-0.5,0-0.9,0c-0.8,0-1.9,0-3.2-0.1
							c-1.3,0-3-0.1-4.7,0.4c-0.4,0.1-0.8,0.3-1.2,0.6c-0.3,0.3-0.6,0.7-0.6,1.1c-0.1,0.4,0.1,0.9,0.5,1.1c0.4,0.2,0.9,0.3,1.4,0.3
							c0.5,0,1-0.1,1.5-0.1c0.5,0,1,0.1,1.5,0.3c1,0.3,1.8,0.8,2.6,1.2c1.6,0.9,3,1.6,4.4,1.5c1.3,0,2.4-0.2,3.1-0.4
							C69.9,268.7,70.2,268.3,70.2,268.4z"/>
					</g>
				</g>
			</g>
			<g>
				<g>
					<path class="st19" d="M54.5,262.3c0,0-0.3,0.2-0.9,0.3c-0.5,0.1-1.3,0.2-2.1,0.2c-1.7,0-3-0.1-3-0.2c0-0.1,1.4-0.1,3-0.2
						c0.8,0,1.6-0.1,2.1-0.1C54.2,262.3,54.5,262.2,54.5,262.3z"/>
				</g>
			</g>
			<g>
				<g>
					<path class="st19" d="M58.1,270c0,0.1-1.7,0.4-3.8-0.2c-2.1-0.5-3.5-1.6-3.4-1.7c0.1-0.1,1.5,0.8,3.5,1.4
						C56.4,270,58.1,269.9,58.1,270z"/>
				</g>
			</g>
			<g>
				<g>
					<path class="st19" d="M53.6,266.3c0-0.1,0.7-0.1,1.6,0.1c0.9,0.2,1.5,0.6,1.5,0.6c0,0.1-0.7-0.1-1.6-0.3
						C54.3,266.6,53.6,266.4,53.6,266.3z"/>
				</g>
			</g>
		</g>
		<g>
			<g>
				<path class="st16" d="M20.5,271.8l17.8-8.7c0.3-0.1,0.6-0.1,0.9,0.1l19.5,12.4c0.5,0.3,0.5,1,0.2,1.4l-10.3,13.8L20.5,271.8z"/>
			</g>
			<g>
				<polygon class="st4" points="22.7,272.5 46.6,288.2 57.5,276.1 38.7,264.4 				"/>
			</g>
			<g>
				<polygon class="st2" points="32,267.8 52.5,281.6 46.6,288.2 22.7,272.5 				"/>
			</g>
			<g>
				<path class="st2" d="M42.5,268.2l-3.1,2.6c-0.2,0.2-0.5,0.1-0.7-0.1l0,0c-0.2-0.2-0.1-0.5,0.1-0.7l3.1-2.6
					c0.2-0.2,0.5-0.1,0.7,0.1l0,0C42.7,267.7,42.7,268,42.5,268.2z"/>
			</g>
			<g>
				<path class="st2" d="M43.9,269.3l-3.1,2.6c-0.2,0.2-0.5,0.1-0.7-0.1l0,0c-0.2-0.2-0.1-0.5,0.1-0.7l3.1-2.6
					c0.2-0.2,0.5-0.1,0.7,0.1l0,0C44.1,268.9,44.1,269.2,43.9,269.3z"/>
			</g>
			<g>
				<path class="st2" d="M45.4,270.7l-3.1,2.6c-0.2,0.2-0.5,0.1-0.7-0.1l0,0c-0.2-0.2-0.1-0.5,0.1-0.7l3.1-2.6
					c0.2-0.2,0.5-0.1,0.7,0.1l0,0C45.7,270.2,45.6,270.5,45.4,270.7z"/>
			</g>
			<g>
				<path class="st2" d="M46.1,272.5l-1.8,1.4c-0.2,0.2-0.5,0.1-0.7-0.1l0,0c-0.2-0.2-0.1-0.5,0.1-0.7l1.8-1.4
					c0.2-0.2,0.5-0.1,0.7,0.1l0,0C46.3,272,46.3,272.4,46.1,272.5z"/>
			</g>
			<g>
				<path class="st17" d="M39.8,267.7l-2.1,1.5c-0.2,0.2-0.5,0.1-0.7-0.1l0,0c-0.2-0.2-0.1-0.5,0.1-0.7l2.1-1.5
					c0.2-0.2,0.5-0.1,0.7,0.1l0,0C40.1,267.3,40.1,267.6,39.8,267.7z"/>
			</g>
			<g>
				<path class="st17" d="M50.5,274.7l-1.8,1.8c-0.2,0.2-0.5,0.2-0.7,0l0,0c-0.2-0.2-0.2-0.5,0-0.7l1.8-1.8c0.2-0.2,0.5-0.2,0.7,0
					l0,0C50.7,274.2,50.7,274.5,50.5,274.7z"/>
			</g>
			<g>
				<path class="st16" d="M48.5,290.8L48.5,290.8c-0.5,0.7-1.4,0.9-2.2,0.5l-26.1-16.7c-0.7-0.5-0.9-1.4-0.5-2.2l0,0
					c0.5-0.7,1.4-0.9,2.2-0.5l26.1,16.7C48.8,289.1,49,290.1,48.5,290.8z"/>
			</g>
		</g>
		<g>
			<g>
				<g>
					<g>
						<g>
							<g>
								<g>
									<g>
										<g>
											<g>
												<path class="st20" d="M249.2,239.6l0.8-18.6c0,0,19.1-4.1,19.5-7.6l-35.9-4.1l-2.4,29L249.2,239.6z"/>
											</g>
										</g>
									</g>
								</g>
							</g>
						</g>
					</g>
					<g class="st22">
						<g>
							<g>
								<g>
									<g>
										<g>
											<g>
												<g>
													<path class="st4" d="M238.7,221.7c-0.7-0.2-1.1-1.1-0.9-1.8c0.2-0.7,1-1.1,1.7-0.9c0.7,0.2,1.2,1.2,0.9,1.9
														c-0.3,0.7-1.3,1.1-1.9,0.7"/>
												</g>
											</g>
										</g>
									</g>
								</g>
							</g>
						</g>
					</g>
					<g>
						<g>
							<g>
								<g>
									<g>
										<g>
											<g>
												<path class="st16" d="M233.6,209.3l-0.2,2.9l34.8,2.8c0,0,1.2-0.4,1.5-1.8L233.6,209.3z"/>
											</g>
										</g>
									</g>
								</g>
							</g>
						</g>
					</g>
					<g>
						<g>
							<g>
								<g>
									<g>
										<g>
											<g>
												<g>
													<path class="st16" d="M250.5,221.2c0-0.2-0.9-0.3-1.7-1c-0.8-0.6-1.2-1.4-1.4-1.4c-0.2,0,0,1.1,1,1.8
														C249.5,221.5,250.5,221.4,250.5,221.2z"/>
												</g>
											</g>
										</g>
									</g>
								</g>
							</g>
						</g>
					</g>
					<g>
						<g>
							<g>
								<g>
									<g>
										<g>
											<g>
												<g>
													<path class="st16" d="M254.4,219.9c0.1-0.2-0.7-0.5-1.2-1.3c-0.6-0.8-0.7-1.6-0.8-1.6c-0.2,0-0.4,1,0.3,2
														C253.4,219.9,254.4,220.1,254.4,219.9z"/>
												</g>
											</g>
										</g>
									</g>
								</g>
							</g>
						</g>
					</g>
					<g>
						<g>
							<g>
								<g>
									<g>
										<g>
											<g>
												<g>
													<path class="st16" d="M256.9,215.6c-0.2,0-0.5,0.8-0.1,1.8c0.4,1,1.2,1.4,1.3,1.3c0.1-0.1-0.4-0.7-0.7-1.5
														C257.1,216.4,257.1,215.6,256.9,215.6z"/>
												</g>
											</g>
										</g>
									</g>
								</g>
							</g>
						</g>
					</g>
					<g>
						<g>
							<g>
								<g>
									<g>
										<g>
											<g>
												<g>
													<path class="st16" d="M249.9,225.4c-0.1-0.2-0.9,0-1.9-0.1c-1-0.1-1.7-0.5-1.8-0.4c-0.1,0.1,0.6,0.8,1.8,1
														C249.1,226.1,249.9,225.6,249.9,225.4z"/>
												</g>
											</g>
										</g>
									</g>
								</g>
							</g>
						</g>
					</g>
				</g>
				<g class="st21">
					<g>
						<g>
							<g>
								<g>
									<g>
										<g>
											<path d="M249.2,239.6l0.8-18.6c0,0,19.1-4.1,19.5-7.6l-35.9-4.1l-2.4,29L249.2,239.6z"/>
										</g>
									</g>
								</g>
							</g>
						</g>
					</g>
				</g>
			</g>
			<g>
				<path class="st16" d="M252.2,225.9c-0.3,0.6-2.5,54.6-2.5,54.6l-18.6-7.3c0,0-3.3-6.1-2.7-14.6c0.6-8.4,5.5-34.2,5.5-34.2
					L252.2,225.9z"/>
			</g>
			<g>
				<g>
					<g>
						<g>
							<g>
								<g>
									<g>
										<g>
											<g>
												<path class="st20" d="M247.2,240.8l-9-16.3c0,0,14.2-13.4,12.8-16.6L218.2,223l13,26L247.2,240.8z"/>
											</g>
										</g>
									</g>
								</g>
							</g>
						</g>
					</g>
					<g class="st22">
						<g>
							<g>
								<g>
									<g>
										<g>
											<g>
												<g>
													<path class="st4" d="M229,230.9c-0.7,0.1-1.5-0.3-1.7-1c-0.2-0.7,0.3-1.5,1-1.7c0.7-0.2,1.7,0.4,1.8,1.1
														c0.1,0.7-0.5,1.6-1.3,1.6"/>
												</g>
											</g>
										</g>
									</g>
								</g>
							</g>
						</g>
					</g>
					<g>
						<g>
							<g>
								<g>
									<g>
										<g>
											<g>
												<path class="st16" d="M218.2,223l1.3,2.6l31.2-15.7c0,0,0.8-0.9,0.4-2.3L218.2,223z"/>
											</g>
										</g>
									</g>
								</g>
							</g>
						</g>
					</g>
					<g>
						<g>
							<g>
								<g>
									<g>
										<g>
											<g>
												<g>
													<path class="st16" d="M238.9,224.4c-0.1-0.2-0.9,0.2-1.9,0.1c-1-0.1-1.8-0.6-1.9-0.4c-0.1,0.1,0.6,0.9,1.8,1
														C238.1,225.2,239,224.5,238.9,224.4z"/>
												</g>
											</g>
										</g>
									</g>
								</g>
							</g>
						</g>
					</g>
					<g>
						<g>
							<g>
								<g>
									<g>
										<g>
											<g>
												<g>
													<path class="st16" d="M241.5,221.2c0-0.2-0.9-0.1-1.7-0.5c-0.9-0.4-1.4-1-1.5-0.9c-0.2,0.1,0.2,1,1.3,1.5
														C240.6,221.8,241.6,221.4,241.5,221.2z"/>
												</g>
											</g>
										</g>
									</g>
								</g>
							</g>
						</g>
					</g>
					<g>
						<g>
							<g>
								<g>
									<g>
										<g>
											<g>
												<g>
													<path class="st16" d="M241.4,216.2c-0.2,0,0,0.9,0.9,1.6c0.8,0.7,1.8,0.6,1.8,0.5c0-0.2-0.7-0.4-1.4-0.9
														C242,216.8,241.6,216.2,241.4,216.2z"/>
												</g>
											</g>
										</g>
									</g>
								</g>
							</g>
						</g>
					</g>
					<g>
						<g>
							<g>
								<g>
									<g>
										<g>
											<g>
												<g>
													<path class="st16" d="M240.5,228.3c-0.1-0.1-0.8,0.5-1.7,0.9c-0.9,0.4-1.8,0.5-1.8,0.6c0,0.2,0.9,0.4,2-0.1
														C240.1,229.3,240.6,228.4,240.5,228.3z"/>
												</g>
											</g>
										</g>
									</g>
								</g>
							</g>
						</g>
					</g>
				</g>
				<g class="st21">
					<g>
						<g>
							<g>
								<g>
									<g>
										<g>
											<polygon points="245.5,237.5 243.9,234.6 228.1,242.8 229.4,245.5 											"/>
										</g>
									</g>
								</g>
							</g>
						</g>
					</g>
				</g>
			</g>
			<g>
				<g>
					<path class="st16" d="M157,264.5l5.2-1.7c0,0,9.6-7.7,20.3-6.7c10.7,1,19.4,6.1,19.4,6.1l11.2,6.1l28.7,7.7l-16.5-39l16.3-6.8
						c0,0,16.3,26.3,21.2,33.7c4.9,7.4,8.7,14.9,9.3,21c0.6,6.1-4,14.6-16.6,16.1c-12.6,1.4-66.6-2.2-66.6-2.2l-41.5-1.2L157,264.5z
						"/>
				</g>
				<g>
					<g>
						<path class="st20" d="M157,264.5c0,0,0,0.2-0.2,0.6c-0.1,0.4-0.3,0.9-0.5,1.7c-0.4,1.5-1.1,3.7-1.9,6.5
							c-1.6,5.7-4,13.9-7.1,24.4l-0.1-0.1c8.6,0.2,18.6,0.5,29.8,0.8c11.2,0.1,23.6,1.2,36.9,1.8c6.7,0.3,13.6,0.6,20.7,0.8
							c3.6,0.1,7.2,0.2,10.8,0.2c1.8,0,3.7,0,5.5-0.1c0.9,0,1.9,0,2.8-0.1c0.9-0.1,1.9-0.1,2.8-0.3c3.7-0.5,7.3-1.9,10.3-4.3
							c2.9-2.4,5-6,5.1-9.9c0-0.5,0-1,0-1.4c-0.1-0.5-0.1-1-0.2-1.4c-0.2-1-0.4-1.9-0.7-2.9c-0.5-1.9-1.3-3.7-2.1-5.5
							c-1.6-3.6-3.7-7.1-5.9-10.5c-3.8-5.8-7.5-11.6-11.1-17.4c-3.6-5.7-7.1-11.4-10.6-16.9l0.2,0.1c-5.6,2.3-11,4.6-16.3,6.8
							l0.1-0.2c5.9,13.9,11.4,27,16.5,39l0.1,0.3l-0.3-0.1c-10.4-2.8-20-5.4-28.7-7.7l0,0l0,0c-3-1.6-5.8-3.2-8.6-4.7
							c-1.4-0.7-2.7-1.5-4.1-2.2c-1.3-0.7-2.7-1.3-4-1.8c-5.4-2.1-10.5-3.3-15.1-3.5c-2.3-0.1-4.5,0.2-6.5,0.7
							c-2,0.5-3.7,1.1-5.3,1.8c-3.1,1.4-5.5,2.9-7.2,4.2l0,0l0,0c-1.8,0.6-3.1,1-3.9,1.2C157.4,264.4,157,264.5,157,264.5
							s0.4-0.1,1.3-0.4c0.9-0.3,2.2-0.7,3.9-1.3l0,0c1.7-1.3,4.1-2.8,7.2-4.2c1.6-0.7,3.3-1.3,5.3-1.8c2-0.5,4.2-0.8,6.5-0.7
							c4.7,0.2,9.8,1.4,15.2,3.5c1.3,0.5,2.7,1.1,4.1,1.8c1.4,0.7,2.7,1.5,4.1,2.2c2.8,1.5,5.6,3.1,8.6,4.7l0,0
							c8.7,2.3,18.3,4.9,28.7,7.7l-0.2,0.2c-5.1-12-10.7-25.1-16.5-39L225,237l0.2-0.1c5.3-2.2,10.8-4.5,16.3-6.8l0.1-0.1l0.1,0.1
							c3.5,5.5,7,11.2,10.6,16.9c3.6,5.7,7.2,11.5,11.1,17.4c2.2,3.4,4.3,6.9,5.9,10.5c0.8,1.8,1.6,3.7,2.1,5.6
							c0.3,1,0.5,1.9,0.7,2.9c0.1,0.5,0.1,1,0.2,1.5c0,0.5,0.1,1,0,1.5c-0.2,4-2.3,7.7-5.3,10.2c-3,2.5-6.7,3.9-10.4,4.4
							c-0.9,0.2-1.9,0.2-2.8,0.3c-0.9,0.1-1.9,0.1-2.8,0.1c-1.9,0.1-3.7,0.1-5.5,0.1c-3.7,0-7.3-0.1-10.8-0.2
							c-7.1-0.2-14-0.5-20.7-0.9c-13.3-0.6-25.7-1.7-36.9-1.8c-11.2-0.3-21.2-0.6-29.8-0.9l-0.1,0l0-0.1c3.1-10.5,5.5-18.7,7.2-24.4
							c0.8-2.8,1.5-5,1.9-6.5c0.2-0.7,0.4-1.3,0.5-1.7C156.9,264.7,157,264.5,157,264.5z"/>
					</g>
				</g>
			</g>
			<g>
				<g>
					<path class="st20" d="M239.8,275.4c0,0,0.2,0,0.7,0.1c0.4,0.1,1,0.2,1.8,0.4c1.5,0.4,3.6,0.9,5.7,2c2.2,1,3.8,2.4,4.8,3.7
						c0.3,0.3,0.5,0.6,0.6,0.8c0.2,0.3,0.3,0.5,0.4,0.7c0.2,0.4,0.3,0.6,0.3,0.6c-0.1,0-0.5-0.8-1.5-2c-1-1.2-2.6-2.5-4.8-3.5
						c-2.1-1-4.2-1.6-5.6-2C240.7,275.7,239.8,275.5,239.8,275.4z"/>
				</g>
			</g>
		</g>
		<g>
			<g>
				<path class="st18" d="M60.5,287.7c0,0-7.4-4.2-8.8-4.3c-2-0.1-11.1,0.2-12.2,0.1c-1-0.1-1.4,1-1,1.7c0.4,0.7,1.4,1.8,4.2,1.8
					c2.8-0.1,4.4,0.4,5.1,0.7c0.7,0.3,0.5,1.1,0.5,1.1s-4.1,0.2-5.2-0.1c-1.6-0.4-7-4-7-4l-2.1-1.4c0,0-0.9,1.1,0.5,3.1
					c1.4,2,3.1,3.8,3.1,3.8s-1.9,1.2-0.2,3.1c0,0-1.2,2.3,1.6,3.7c0,0,0.6,1.6,1.8,2.6c0.9,0.7,3,0.6,4.3,0.6
					c1.5,0.1,4.8-0.2,5.9-0.5c3-0.6,5.2-1.4,5.2-1.4l6.7,0.4l0.6-11.4L60.5,287.7z"/>
			</g>
			<g>
				<g>
					<path class="st19" d="M42,292.7c0,0.1-1.2-0.3-2.6-1c-1.3-0.7-2.3-1.5-2.3-1.6c0.1-0.1,1.1,0.6,2.4,1.3
						C40.9,292.1,42,292.6,42,292.7z"/>
				</g>
			</g>
			<g>
				<g>
					<path class="st19" d="M41.1,295.3c0,0.1-1-0.1-2.1-0.7c-1.1-0.6-1.8-1.2-1.7-1.3c0.1-0.1,0.9,0.4,1.9,1
						C40.2,294.8,41.1,295.2,41.1,295.3z"/>
				</g>
			</g>
			<g>
				<g>
					<path class="st19" d="M41.2,298c0,0.1-0.9,0-1.8-0.5c-1-0.5-1.6-1.1-1.5-1.2c0.1-0.1,0.8,0.4,1.7,0.8
						C40.5,297.6,41.3,297.9,41.2,298z"/>
				</g>
			</g>
		</g>
		<g class="st21">
			<g>
				<path d="M114.9,288c3.8-4.9,5.7-11,6.5-17.2c0.8-6.1,0.6-12,0.3-18.1C120.4,265.2,118.1,276.7,114.9,288z"/>
			</g>
		</g>
		<g>
			<g>
				<path class="st10" d="M122.3,245.5c0.1,0.6,0-1.4,0-0.7c-0.2,8.4-5.1,44.3-11.6,51.3c-4.9,5.3-51,3.1-51,3.1l0.5-12
					c0,0,1.2-0.4,9.5-1.4c8.3-1,25.2-5.4,25.2-5.4l5.7-37.5"/>
			</g>
			<g>
				<g>
					<path class="st16" d="M100.6,242.9c0,0,0,0.2-0.1,0.7c-0.1,0.5-0.2,1.1-0.3,2c-0.3,1.7-0.6,4.3-1.1,7.5
						c-1,6.5-2.4,15.9-4.1,27.4l0,0.1l-0.1,0c-4.9,1.3-10.3,2.6-16.1,3.8c-2.9,0.6-5.9,1.2-9,1.6c-3.1,0.4-6.3,0.8-9.5,1.4l0.1-0.2
						c-0.2,3.8-0.3,7.9-0.5,12l-0.2-0.2c3.3,0.2,6.7,0.3,10.2,0.3c6.6,0.2,13,0.2,19.3,0c3.1-0.1,6.2-0.2,9.1-0.5
						c3-0.3,5.9-0.6,8.7-1.2c0.7-0.2,1.4-0.4,2-0.6c0.6-0.3,1.3-0.6,1.7-1.1c0.9-1,1.6-2.2,2.1-3.5c1.1-2.4,1.9-5,2.7-7.4
						c1.4-4.9,2.4-9.5,3.2-13.8c1.6-8.5,2.6-15.4,3.1-20.2c0.3-2.4,0.4-4.3,0.5-5.5c0-0.3,0-0.6,0-0.8l0,0c0,0,0,0,0,0c0,0,0,0,0,0
						c0,0,0,0,0,0l0,0l0,0.1c0,0.1,0,0.1,0,0.2c0,0.1,0,0.2,0,0.3c0,0.2,0,0.3,0,0.4c0-0.1,0-0.1,0-0.1c0,0,0,0,0,0.1
						c0-0.1,0-0.2,0-0.4c0-0.1,0-0.2,0-0.3c0-0.1,0-0.1,0-0.2l0-0.1l0,0c0,0,0,0,0,0l0,0c0,0.2,0,0.5,0,0.8c0,1.3-0.2,3.1-0.4,5.6
						c-0.5,4.8-1.4,11.8-3,20.3c-0.8,4.2-1.8,8.9-3.2,13.8c-0.7,2.4-1.5,5-2.7,7.4c-0.6,1.2-1.2,2.5-2.2,3.5
						c-0.5,0.6-1.2,0.9-1.8,1.2c-0.7,0.3-1.4,0.5-2,0.7c-2.8,0.7-5.7,1-8.7,1.3c-3,0.2-6,0.4-9.2,0.5c-6.2,0.2-12.7,0.1-19.3,0
						c-3.5-0.1-7-0.2-10.2-0.3l-0.2,0l0-0.2c0.2-4.1,0.3-8.2,0.5-12l0-0.1l0.1,0c1.6-0.3,3.2-0.5,4.8-0.8c1.6-0.2,3.2-0.4,4.7-0.6
						c3.1-0.4,6.1-1,9-1.6c5.8-1.2,11.2-2.5,16.1-3.8l-0.1,0.1C96.5,269,98,259.6,99,253c0.5-3.2,0.9-5.8,1.2-7.5
						c0.1-0.9,0.2-1.5,0.3-2C100.5,243.1,100.6,242.9,100.6,242.9z"/>
				</g>
			</g>
		</g>
	</g>
</g>
<g>
	<g>
		<g>
			<rect x="127.5" y="59.3" class="st23" width="155.7" height="118.7"/>
			<rect x="127.5" y="40.2" class="st10" width="155.6" height="19.1"/>
			<g>
				<g>
					<g>
						<ellipse class="st23" cx="136.1" cy="48.9" rx="2.8" ry="3.1"/>
					</g>
				</g>
				<g>
					<g>
						<ellipse class="st23" cx="144.4" cy="48.9" rx="2.8" ry="3.1"/>
					</g>
				</g>
				<g>
					<g>
						<ellipse class="st23" cx="152.6" cy="48.9" rx="2.8" ry="3.1"/>
					</g>
				</g>
			</g>
		</g>
		<g>
			<path class="st24" d="M258.9,113.7H151.7c-2.4,0-4.3-1.9-4.3-4.3V97.9c0-2.4,1.9-4.3,4.3-4.3h107.2c2.4,0,4.3,1.9,4.3,4.3v11.5
				C263.2,111.8,261.3,113.7,258.9,113.7z"/>
			<path class="st24" d="M258.9,153.3H151.7c-2.4,0-4.3-1.9-4.3-4.3v-11.5c0-2.4,1.9-4.3,4.3-4.3h107.2c2.4,0,4.3,1.9,4.3,4.3V149
				C263.2,151.4,261.3,153.3,258.9,153.3z"/>
			<g>
				<path class="st25" d="M205.2,141.1l-0.2,1.6l1.6-0.5l0.1,1.1l-1.5,0.1l1,1.3l-1,0.5l-0.7-1.4l-0.6,1.4l-1-0.5l1-1.3l-1.5-0.1
					l0.2-1.1l1.6,0.5l-0.2-1.6H205.2z"/>
				<path class="st25" d="M210.1,141.1l-0.2,1.6l1.6-0.5l0.1,1.1l-1.5,0.1l1,1.3l-1,0.5l-0.7-1.4l-0.6,1.4l-1-0.5l1-1.3l-1.5-0.1
					l0.2-1.1l1.6,0.5l-0.2-1.6H210.1z"/>
				<path class="st25" d="M215,141.1l-0.2,1.6l1.6-0.5l0.1,1.1l-1.5,0.1l1,1.3l-1,0.5l-0.7-1.4l-0.6,1.4l-1-0.5l1-1.3l-1.5-0.1
					l0.2-1.1l1.6,0.5l-0.2-1.6H215z"/>
				<path class="st25" d="M219.9,141.1l-0.2,1.6l1.6-0.5l0.1,1.1l-1.5,0.1l1,1.3l-1,0.5l-0.7-1.4l-0.6,1.4l-1-0.5l1-1.3l-1.5-0.1
					l0.2-1.1l1.6,0.5l-0.2-1.6H219.9z"/>
				<path class="st25" d="M224.8,141.1l-0.2,1.6l1.6-0.5l0.1,1.1l-1.5,0.1l1,1.3l-1,0.5l-0.7-1.4l-0.6,1.4l-1-0.5l1-1.3l-1.5-0.1
					l0.2-1.1l1.6,0.5l-0.2-1.6H224.8z"/>
				<path class="st25" d="M229.7,141.1l-0.2,1.6l1.6-0.5l0.1,1.1l-1.5,0.1l1,1.3l-1,0.5l-0.7-1.4l-0.6,1.4l-1-0.5l1-1.3l-1.5-0.1
					l0.2-1.1l1.6,0.5l-0.2-1.6H229.7z"/>
			</g>
			<g>
				<path class="st26" d="M150.7,88.9h-2.6v-4.6h2.6v0.8H149v1h1.6v0.8H149v1.2h1.7V88.9z"/>
				<path class="st26" d="M151.3,87.5v-0.8h1.7v0.8H151.3z"/>
				<path class="st26" d="M156.8,88.9h-1v-2c0-0.3,0-0.4-0.1-0.6c-0.1-0.1-0.2-0.2-0.4-0.2c-0.2,0-0.4,0.1-0.5,0.3
					c-0.1,0.2-0.2,0.5-0.2,0.9v1.6h-1v-3.5h0.7l0.1,0.4h0.1c0.1-0.2,0.2-0.3,0.4-0.4c0.2-0.1,0.4-0.1,0.6-0.1c0.5,0,0.9,0.2,1.1,0.5
					h0.1c0.1-0.2,0.2-0.3,0.4-0.4c0.2-0.1,0.4-0.1,0.6-0.1c0.4,0,0.7,0.1,0.9,0.3c0.2,0.2,0.3,0.5,0.3,1v2.3h-1v-2
					c0-0.3,0-0.4-0.1-0.6c-0.1-0.1-0.2-0.2-0.4-0.2c-0.2,0-0.4,0.1-0.5,0.3c-0.1,0.2-0.2,0.4-0.2,0.8V88.9z"/>
				<path class="st26" d="M162.2,88.9l-0.2-0.5h0c-0.2,0.2-0.3,0.3-0.5,0.4c-0.2,0.1-0.4,0.1-0.7,0.1c-0.3,0-0.6-0.1-0.8-0.3
					c-0.2-0.2-0.3-0.5-0.3-0.8c0-0.4,0.1-0.6,0.4-0.8c0.3-0.2,0.7-0.3,1.2-0.3l0.6,0v-0.2c0-0.4-0.2-0.5-0.5-0.5
					c-0.3,0-0.6,0.1-1,0.3l-0.3-0.6c0.4-0.2,0.9-0.3,1.3-0.3c0.5,0,0.8,0.1,1.1,0.3c0.3,0.2,0.4,0.5,0.4,0.9v2.3H162.2z M161.9,87.2
					l-0.4,0c-0.3,0-0.5,0.1-0.6,0.2c-0.1,0.1-0.2,0.2-0.2,0.4c0,0.3,0.2,0.4,0.5,0.4c0.2,0,0.4-0.1,0.5-0.2c0.1-0.1,0.2-0.3,0.2-0.5
					V87.2z"/>
				<path class="st26" d="M163.8,84.5c0-0.3,0.2-0.5,0.5-0.5c0.3,0,0.5,0.2,0.5,0.5c0,0.1,0,0.3-0.1,0.3c-0.1,0.1-0.2,0.1-0.4,0.1
					C164,84.9,163.8,84.8,163.8,84.5z M164.8,88.9h-1v-3.5h1V88.9z"/>
				<path class="st26" d="M166.8,88.9h-1V84h1V88.9z"/>
			</g>
			<g>
				<path class="st26" d="M151.2,125.5c0,0.5-0.2,0.9-0.5,1.1c-0.3,0.3-0.7,0.4-1.3,0.4H149v1.6h-1v-4.6h1.5c0.6,0,1,0.1,1.3,0.4
					C151.1,124.7,151.2,125.1,151.2,125.5z M149,126.3h0.3c0.3,0,0.5-0.1,0.7-0.2c0.1-0.1,0.2-0.3,0.2-0.5c0-0.2-0.1-0.4-0.2-0.5
					c-0.1-0.1-0.3-0.2-0.6-0.2H149V126.3z"/>
				<path class="st26" d="M154.3,128.7l-0.2-0.5h0c-0.2,0.2-0.3,0.3-0.5,0.4c-0.2,0.1-0.4,0.1-0.7,0.1c-0.3,0-0.6-0.1-0.8-0.3
					c-0.2-0.2-0.3-0.5-0.3-0.8c0-0.4,0.1-0.6,0.4-0.8c0.3-0.2,0.7-0.3,1.2-0.3l0.6,0v-0.2c0-0.4-0.2-0.5-0.5-0.5
					c-0.3,0-0.6,0.1-1,0.3l-0.3-0.6c0.4-0.2,0.9-0.3,1.3-0.3c0.5,0,0.8,0.1,1.1,0.3c0.3,0.2,0.4,0.5,0.4,0.9v2.3H154.3z M154,127.1
					l-0.4,0c-0.3,0-0.5,0.1-0.6,0.2c-0.1,0.1-0.2,0.2-0.2,0.4c0,0.3,0.2,0.4,0.5,0.4c0.2,0,0.4-0.1,0.5-0.2c0.1-0.1,0.2-0.3,0.2-0.5
					V127.1z"/>
				<path class="st26" d="M158.4,127.6c0,0.4-0.1,0.6-0.4,0.8c-0.2,0.2-0.6,0.3-1.1,0.3c-0.3,0-0.5,0-0.7-0.1
					c-0.2,0-0.3-0.1-0.5-0.2v-0.8c0.2,0.1,0.4,0.2,0.6,0.2c0.2,0.1,0.4,0.1,0.6,0.1c0.3,0,0.5-0.1,0.5-0.3c0-0.1,0-0.1-0.1-0.2
					c0,0-0.1-0.1-0.2-0.2c-0.1-0.1-0.3-0.1-0.5-0.2c-0.3-0.1-0.5-0.2-0.6-0.3c-0.1-0.1-0.2-0.2-0.3-0.3c-0.1-0.1-0.1-0.3-0.1-0.5
					c0-0.3,0.1-0.6,0.4-0.7c0.2-0.2,0.6-0.3,1-0.3c0.4,0,0.8,0.1,1.2,0.3l-0.3,0.7c-0.2-0.1-0.3-0.1-0.5-0.2c-0.2,0-0.3-0.1-0.5-0.1
					c-0.3,0-0.4,0.1-0.4,0.2c0,0.1,0,0.2,0.1,0.2c0.1,0.1,0.3,0.2,0.6,0.3c0.3,0.1,0.5,0.2,0.6,0.3c0.1,0.1,0.2,0.2,0.3,0.3
					C158.3,127.3,158.4,127.5,158.4,127.6z"/>
				<path class="st26" d="M161.5,127.6c0,0.4-0.1,0.6-0.4,0.8c-0.2,0.2-0.6,0.3-1.1,0.3c-0.3,0-0.5,0-0.7-0.1
					c-0.2,0-0.3-0.1-0.5-0.2v-0.8c0.2,0.1,0.4,0.2,0.6,0.2c0.2,0.1,0.4,0.1,0.6,0.1c0.3,0,0.5-0.1,0.5-0.3c0-0.1,0-0.1-0.1-0.2
					c0,0-0.1-0.1-0.2-0.2c-0.1-0.1-0.3-0.1-0.5-0.2c-0.3-0.1-0.5-0.2-0.6-0.3c-0.1-0.1-0.2-0.2-0.3-0.3c-0.1-0.1-0.1-0.3-0.1-0.5
					c0-0.3,0.1-0.6,0.4-0.7c0.2-0.2,0.6-0.3,1-0.3c0.4,0,0.8,0.1,1.2,0.3l-0.3,0.7c-0.2-0.1-0.3-0.1-0.5-0.2c-0.2,0-0.3-0.1-0.5-0.1
					c-0.3,0-0.4,0.1-0.4,0.2c0,0.1,0,0.2,0.1,0.2c0.1,0.1,0.3,0.2,0.6,0.3c0.3,0.1,0.5,0.2,0.6,0.3c0.1,0.1,0.2,0.2,0.3,0.3
					C161.5,127.3,161.5,127.5,161.5,127.6z"/>
				<path class="st26" d="M165.2,128.7l-0.3-1.2l-0.4-1.5h0l-0.6,2.8h-1l-1-3.5h1l0.4,1.6c0.1,0.3,0.1,0.7,0.2,1.2h0
					c0-0.2,0-0.4,0.1-0.8l0.1-0.3l0.4-1.7h1.1l0.4,1.7c0,0,0,0.1,0,0.2c0,0.1,0,0.2,0.1,0.3c0,0.1,0,0.2,0,0.3c0,0.1,0,0.2,0,0.2h0
					c0-0.2,0.1-0.4,0.1-0.6c0-0.3,0.1-0.4,0.1-0.5l0.4-1.6h0.9l-1,3.5H165.2z"/>
				<path class="st26" d="M171,126.9c0,0.6-0.2,1-0.5,1.3c-0.3,0.3-0.7,0.5-1.3,0.5c-0.3,0-0.6-0.1-0.9-0.2
					c-0.3-0.1-0.5-0.4-0.6-0.6c-0.1-0.3-0.2-0.6-0.2-1c0-0.6,0.1-1,0.4-1.3c0.3-0.3,0.7-0.5,1.3-0.5c0.3,0,0.6,0.1,0.9,0.2
					c0.3,0.1,0.5,0.4,0.6,0.6C170.9,126.2,171,126.6,171,126.9z M168.6,126.9c0,0.3,0.1,0.6,0.2,0.8c0.1,0.2,0.3,0.3,0.6,0.3
					c0.3,0,0.4-0.1,0.6-0.3c0.1-0.2,0.2-0.4,0.2-0.8c0-0.3-0.1-0.6-0.2-0.8c-0.1-0.2-0.3-0.3-0.6-0.3c-0.3,0-0.4,0.1-0.6,0.3
					C168.6,126.3,168.6,126.6,168.6,126.9z"/>
				<path class="st26" d="M173.7,125.1c0.1,0,0.2,0,0.3,0L174,126c-0.1,0-0.2,0-0.3,0c-0.3,0-0.5,0.1-0.7,0.2
					c-0.2,0.2-0.3,0.4-0.3,0.7v1.8h-1v-3.5h0.7l0.1,0.6h0c0.1-0.2,0.3-0.4,0.4-0.5C173.3,125.2,173.5,125.1,173.7,125.1z"/>
				<path class="st26" d="M175.8,128.7c-0.4,0-0.7-0.2-1-0.5c-0.2-0.3-0.4-0.8-0.4-1.3c0-0.6,0.1-1,0.4-1.3c0.2-0.3,0.6-0.5,1-0.5
					c0.4,0,0.8,0.2,1,0.5h0c0-0.3-0.1-0.5-0.1-0.7v-1.1h1v4.9H177l-0.2-0.5h0C176.6,128.6,176.2,128.7,175.8,128.7z M176.1,128
					c0.2,0,0.4-0.1,0.5-0.2c0.1-0.1,0.2-0.4,0.2-0.7v-0.1c0-0.4-0.1-0.6-0.2-0.8c-0.1-0.2-0.3-0.2-0.6-0.2c-0.2,0-0.4,0.1-0.5,0.3
					c-0.1,0.2-0.2,0.4-0.2,0.8c0,0.3,0.1,0.6,0.2,0.8C175.7,127.9,175.9,128,176.1,128z"/>
			</g>
		</g>
	</g>
	<g>
		<g>
			<rect x="40.5" y="24.6" class="st23" width="126.6" height="96.5"/>
			<rect x="40.5" y="9.1" class="st10" width="126.5" height="15.6"/>
			<g>
				<g>
					<g>
						<ellipse class="st4" cx="47.5" cy="16.1" rx="2.3" ry="2.5"/>
					</g>
				</g>
				<g>
					<g>
						<ellipse class="st4" cx="54.2" cy="16.1" rx="2.3" ry="2.5"/>
					</g>
				</g>
				<g>
					<g>
						<ellipse class="st4" cx="60.9" cy="16.1" rx="2.3" ry="2.5"/>
					</g>
				</g>
			</g>
		</g>
		<g>
			<path class="st24" d="M147.3,68.8H60.2c-1.9,0-3.5-1.6-3.5-3.5V56c0-1.9,1.6-3.5,3.5-3.5h87.1c1.9,0,3.5,1.6,3.5,3.5v9.4
				C150.8,67.3,149.3,68.8,147.3,68.8z"/>
			<path class="st24" d="M147.3,101H60.2c-1.9,0-3.5-1.6-3.5-3.5v-9.4c0-1.9,1.6-3.5,3.5-3.5h87.1c1.9,0,3.5,1.6,3.5,3.5v9.4
				C150.8,99.4,149.3,101,147.3,101z"/>
			<g>
				<path class="st26" d="M59.4,48.6h-2.1v-3.7h2.1v0.6H58v0.8h1.3V47H58v1h1.4V48.6z"/>
				<path class="st26" d="M59.8,47.6v-0.6h1.4v0.6H59.8z"/>
				<path class="st26" d="M64.3,48.6h-0.8V47c0-0.2,0-0.4-0.1-0.5c-0.1-0.1-0.2-0.2-0.3-0.2c-0.2,0-0.3,0.1-0.4,0.2
					c-0.1,0.1-0.1,0.4-0.1,0.7v1.3h-0.8v-2.8h0.6l0.1,0.4h0c0.1-0.1,0.2-0.2,0.3-0.3c0.1-0.1,0.3-0.1,0.5-0.1c0.4,0,0.7,0.1,0.9,0.4
					h0.1c0.1-0.1,0.2-0.2,0.3-0.3c0.1-0.1,0.3-0.1,0.5-0.1c0.3,0,0.6,0.1,0.7,0.2c0.2,0.2,0.2,0.4,0.2,0.8v1.9h-0.8V47
					c0-0.2,0-0.4-0.1-0.5c-0.1-0.1-0.2-0.2-0.3-0.2c-0.2,0-0.3,0.1-0.4,0.2c-0.1,0.1-0.1,0.4-0.1,0.6V48.6z"/>
				<path class="st26" d="M68.7,48.6l-0.2-0.4h0c-0.1,0.2-0.3,0.3-0.4,0.3c-0.1,0.1-0.3,0.1-0.5,0.1c-0.3,0-0.5-0.1-0.6-0.2
					c-0.2-0.2-0.2-0.4-0.2-0.7c0-0.3,0.1-0.5,0.3-0.7c0.2-0.1,0.5-0.2,1-0.2l0.5,0v-0.1c0-0.3-0.1-0.4-0.4-0.4
					c-0.2,0-0.5,0.1-0.8,0.2L67,46c0.3-0.2,0.7-0.3,1.1-0.3c0.4,0,0.7,0.1,0.9,0.2c0.2,0.2,0.3,0.4,0.3,0.8v1.9H68.7z M68.5,47.3
					l-0.3,0c-0.2,0-0.4,0-0.5,0.1c-0.1,0.1-0.2,0.2-0.2,0.3c0,0.2,0.1,0.3,0.4,0.3c0.2,0,0.3-0.1,0.4-0.2c0.1-0.1,0.2-0.2,0.2-0.4
					V47.3z"/>
				<path class="st26" d="M70,45c0-0.3,0.1-0.4,0.4-0.4c0.3,0,0.4,0.1,0.4,0.4c0,0.1,0,0.2-0.1,0.3c-0.1,0.1-0.2,0.1-0.3,0.1
					C70.2,45.4,70,45.3,70,45z M70.8,48.6h-0.8v-2.8h0.8V48.6z"/>
				<path class="st26" d="M72.4,48.6h-0.8v-4h0.8V48.6z"/>
			</g>
			<g>
				<path class="st26" d="M59.8,78.4c0,0.4-0.1,0.7-0.4,0.9c-0.3,0.2-0.6,0.3-1.1,0.3H58V81h-0.8v-3.7h1.2c0.5,0,0.8,0.1,1,0.3
					C59.7,77.8,59.8,78.1,59.8,78.4z M58,79h0.3c0.2,0,0.4,0,0.5-0.1c0.1-0.1,0.2-0.2,0.2-0.4c0-0.2-0.1-0.3-0.2-0.4
					c-0.1-0.1-0.3-0.1-0.5-0.1H58V79z"/>
				<path class="st26" d="M62.3,81l-0.2-0.4h0c-0.1,0.2-0.3,0.3-0.4,0.3c-0.1,0.1-0.3,0.1-0.5,0.1c-0.3,0-0.5-0.1-0.6-0.2
					c-0.2-0.2-0.2-0.4-0.2-0.7c0-0.3,0.1-0.5,0.3-0.7c0.2-0.1,0.5-0.2,1-0.2l0.5,0v-0.1c0-0.3-0.1-0.4-0.4-0.4
					c-0.2,0-0.5,0.1-0.8,0.2l-0.3-0.5c0.3-0.2,0.7-0.3,1.1-0.3c0.4,0,0.7,0.1,0.9,0.2c0.2,0.2,0.3,0.4,0.3,0.8V81H62.3z M62,79.7
					l-0.3,0c-0.2,0-0.4,0-0.5,0.1c-0.1,0.1-0.2,0.2-0.2,0.3c0,0.2,0.1,0.3,0.4,0.3c0.2,0,0.3-0.1,0.4-0.2c0.1-0.1,0.2-0.2,0.2-0.4
					V79.7z"/>
				<path class="st26" d="M65.6,80.2c0,0.3-0.1,0.5-0.3,0.7c-0.2,0.2-0.5,0.2-0.9,0.2c-0.2,0-0.4,0-0.5,0c-0.1,0-0.3-0.1-0.4-0.1
					v-0.6c0.1,0.1,0.3,0.1,0.5,0.2c0.2,0,0.3,0.1,0.5,0.1c0.3,0,0.4-0.1,0.4-0.2c0-0.1,0-0.1-0.1-0.1c0,0-0.1-0.1-0.2-0.1
					c-0.1,0-0.2-0.1-0.4-0.2c-0.2-0.1-0.4-0.2-0.5-0.3c-0.1-0.1-0.2-0.2-0.2-0.3c0-0.1-0.1-0.2-0.1-0.4c0-0.3,0.1-0.4,0.3-0.6
					c0.2-0.1,0.5-0.2,0.8-0.2c0.3,0,0.7,0.1,1,0.2l-0.2,0.6c-0.1-0.1-0.3-0.1-0.4-0.2c-0.1,0-0.3-0.1-0.4-0.1
					c-0.2,0-0.3,0.1-0.3,0.2c0,0.1,0,0.1,0.1,0.2c0.1,0.1,0.2,0.1,0.5,0.2c0.2,0.1,0.4,0.2,0.5,0.3c0.1,0.1,0.2,0.2,0.2,0.3
					C65.6,79.9,65.6,80,65.6,80.2z"/>
				<path class="st26" d="M68.2,80.2c0,0.3-0.1,0.5-0.3,0.7c-0.2,0.2-0.5,0.2-0.9,0.2c-0.2,0-0.4,0-0.5,0c-0.1,0-0.3-0.1-0.4-0.1
					v-0.6c0.1,0.1,0.3,0.1,0.5,0.2c0.2,0,0.3,0.1,0.5,0.1c0.3,0,0.4-0.1,0.4-0.2c0-0.1,0-0.1-0.1-0.1c0,0-0.1-0.1-0.2-0.1
					c-0.1,0-0.2-0.1-0.4-0.2c-0.2-0.1-0.4-0.2-0.5-0.3c-0.1-0.1-0.2-0.2-0.2-0.3c0-0.1-0.1-0.2-0.1-0.4c0-0.3,0.1-0.4,0.3-0.6
					c0.2-0.1,0.5-0.2,0.8-0.2c0.3,0,0.7,0.1,1,0.2l-0.2,0.6c-0.1-0.1-0.3-0.1-0.4-0.2c-0.1,0-0.3-0.1-0.4-0.1
					c-0.2,0-0.3,0.1-0.3,0.2c0,0.1,0,0.1,0.1,0.2c0.1,0.1,0.2,0.1,0.5,0.2c0.2,0.1,0.4,0.2,0.5,0.3c0.1,0.1,0.2,0.2,0.2,0.3
					C68.2,79.9,68.2,80,68.2,80.2z"/>
				<path class="st26" d="M71.1,81l-0.2-1l-0.3-1.3h0L70.1,81h-0.8l-0.8-2.8h0.8l0.3,1.3c0.1,0.2,0.1,0.5,0.2,0.9h0
					c0-0.1,0-0.3,0.1-0.6l0-0.2l0.4-1.4h0.9l0.3,1.4c0,0,0,0.1,0,0.2c0,0.1,0,0.2,0,0.2c0,0.1,0,0.2,0,0.2c0,0.1,0,0.1,0,0.2h0
					c0-0.1,0-0.3,0.1-0.5c0-0.2,0.1-0.4,0.1-0.4l0.3-1.3h0.8L72,81H71.1z"/>
				<path class="st26" d="M75.9,79.6c0,0.5-0.1,0.8-0.4,1.1c-0.2,0.3-0.6,0.4-1,0.4c-0.3,0-0.5-0.1-0.7-0.2
					c-0.2-0.1-0.4-0.3-0.5-0.5c-0.1-0.2-0.2-0.5-0.2-0.8c0-0.5,0.1-0.8,0.4-1.1c0.2-0.3,0.6-0.4,1-0.4c0.3,0,0.5,0.1,0.7,0.2
					c0.2,0.1,0.4,0.3,0.5,0.5C75.8,79,75.9,79.3,75.9,79.6z M73.9,79.6c0,0.3,0,0.5,0.1,0.6c0.1,0.1,0.2,0.2,0.5,0.2
					c0.2,0,0.4-0.1,0.4-0.2c0.1-0.1,0.1-0.4,0.1-0.6c0-0.3,0-0.5-0.1-0.6c-0.1-0.1-0.2-0.2-0.5-0.2c-0.2,0-0.4,0.1-0.4,0.2
					C73.9,79.1,73.9,79.3,73.9,79.6z"/>
				<path class="st26" d="M78.1,78.1c0.1,0,0.2,0,0.3,0l-0.1,0.7c-0.1,0-0.1,0-0.2,0c-0.2,0-0.4,0.1-0.6,0.2
					c-0.1,0.1-0.2,0.3-0.2,0.5V81h-0.8v-2.8h0.6l0.1,0.5h0c0.1-0.2,0.2-0.3,0.4-0.4C77.7,78.1,77.9,78.1,78.1,78.1z"/>
				<path class="st26" d="M79.8,81.1c-0.3,0-0.6-0.1-0.8-0.4c-0.2-0.3-0.3-0.6-0.3-1.1c0-0.5,0.1-0.8,0.3-1.1
					c0.2-0.3,0.5-0.4,0.8-0.4c0.4,0,0.6,0.1,0.8,0.4h0c0-0.2-0.1-0.4-0.1-0.6V77h0.8v4h-0.6l-0.2-0.4h0
					C80.4,80.9,80.1,81.1,79.8,81.1z M80,80.4c0.2,0,0.3-0.1,0.4-0.2c0.1-0.1,0.1-0.3,0.2-0.6v-0.1c0-0.3,0-0.5-0.1-0.7
					c-0.1-0.1-0.2-0.2-0.5-0.2c-0.2,0-0.3,0.1-0.4,0.2c-0.1,0.1-0.1,0.4-0.1,0.6c0,0.3,0,0.5,0.1,0.6C79.7,80.4,79.9,80.4,80,80.4z"
					/>
			</g>
		</g>
	</g>
	<g>
		<g>
			<g>
				<path class="st4" d="M142,53.9h40.3c1.5,0,2.8,1.3,2.8,2.9v0.3c0,3,2.3,5.4,5.2,5.4h0c2.9,0,5.2-2.4,5.2-5.4v-0.3
					c0-1.6,1.2-2.9,2.8-2.9h40.3c7.1,0,12.9,6.1,12.9,13.5v216.1c0,7.5-5.8,13.5-12.9,13.5H142c-7.1,0-12.9-6.1-12.9-13.5V67.4
					C129.1,60,134.9,53.9,142,53.9z"/>
			</g>
			<path class="st7" d="M143.6,53.8h93.2c8.7,0,15.8,6.8,15.8,15.2v213c0,8.4-7.1,15.2-15.8,15.2h-93.2c-8.7,0-15.8-6.8-15.8-15.2
				V69C127.8,60.6,134.9,53.8,143.6,53.8z M130.4,281.3c0,7.3,5.6,13.3,12.6,13.3h94.6c7,0,12.6-5.9,12.6-13.3V69.6
				c0-7.3-5.6-13.3-12.6-13.3H198c-1.5,0-2.7,1.3-2.7,2.9v0.3c0,2.9-2.3,5.3-5.1,5.3h0c-2.8,0-5.1-2.4-5.1-5.3v-0.3
				c0-1.6-1.2-2.9-2.7-2.9H143c-7,0-12.6,5.9-12.6,13.3V281.3z M250.9,284.4c0-0.2,0.1-0.4,0.1-0.7
				C250.9,283.9,250.9,284.1,250.9,284.4c-0.1,0.6-0.2,1.1-0.4,1.6C250.6,285.5,250.8,284.9,250.9,284.4z M250.1,286.9
				c-0.1,0.2-0.2,0.4-0.3,0.6C249.9,287.4,250,287.2,250.1,286.9z"/>
			<g>
				<ellipse class="st27" cx="190.2" cy="59.5" rx="1.7" ry="1.6"/>
				
					<image style="overflow:visible;" width="13" height="13" xlink:href="D765425E.png"  transform="matrix(0.24 0 0 0.24 188.6686 57.9134)">
				</image>
			</g>
		</g>
		<g>
			<g>
				<ellipse class="st23" cx="190.2" cy="157.7" rx="40.4" ry="39.4"/>
				<g>
					<path class="st4" d="M162.8,174.1c-3.9-13.2,10.4-33.3,27.4-33.3c17.1,0,31.3,20.2,27.4,33.3c-3.2,10.7-17.8,14.6-26.5,14.8
						C181.3,189.1,166.1,185.1,162.8,174.1z"/>
					<ellipse class="st28" cx="190.3" cy="140.5" rx="13.3" ry="14.1"/>
				</g>
			</g>
			<g>
				<path class="st10" d="M217.2,231.1h-54c-1.9,0-3.4-1.5-3.4-3.4V216c0-1.9,1.5-3.4,3.4-3.4h54c1.9,0,3.4,1.5,3.4,3.4v11.8
					C220.6,229.6,219.1,231.1,217.2,231.1z"/>
			</g>
		</g>
	</g>
	<g>
		<path class="st29" d="M63.6,126.1l9.6,5.3l-5.9,13.9l13.5,23.4c0,0,3.4,0.3,7.5,2.9c0,0.8-0.8,1.4-1.6,1.1l-2.2-0.9
			c0,0,5.3,4.4,4.9,8.2c0,0-0.9,5.4-5.7,4.4c0,0-4.6,0.4-8.3-9.5l-15.7-27.1c-0.8-1.3-1-2.9-0.6-4.4L63.6,126.1z"/>
		<polygon class="st29" points="72.3,283.8 81.5,284.1 81.7,277.1 81.8,275.6 81.9,271.8 72.8,272.9 72.7,275.6 72.6,278 		"/>
		<path class="st30" d="M70.7,287.7c-0.4-2.2-0.6-6.1,1.7-9.5c0,0,5.1,3.3,9.2-1c0,0,3.8,0.6,13.3,5.9c1.1,0.6,2.2,1.2,3.3,1.7
			c1.5,0.7,4,2,5.2,3.7c1.2,1.7,0.4,4.2-1.7,4.8c-3.9,1.1-14.9,3.3-29.1-3.1C71.5,289.7,70.9,288.8,70.7,287.7z"/>
		<path class="st7" d="M71.3,274.7h11l8.4-56.8l11.8-56.1l0.6-2.8l-25.8-0.7l-3.6-0.1c0,0-5.1,7.7-1.2,25.2l1.2,28.8
			C73.7,212.1,66.6,233,71.3,274.7z"/>
		<path class="st31" d="M81.1,274.7h1.2l8.4-56.8l11.8-56.1l-10.1-2.3l-8.7,0.5c0,12.8-1.2,15.9,3.3,33.4l3.2,9.9L81.1,274.7z"/>
		<polygon class="st29" points="77.3,268.8 78.6,269.7 84.9,273.9 86.9,270.9 88.8,268.1 90.9,264.9 91.1,264.6 91.7,263.7 
			91.1,263.4 83.4,259.7 83.4,259.8 80.5,264 		"/>
		<path class="st30" d="M74.5,274.4c8.6,13.1,19.1,17.1,22.7,18.1c1.8,0.5,3.6-0.7,3.7-2.6c0.1-2.2-1.3-4.9-2.3-6.4
			c-0.7-1.1-1.3-2.2-1.9-3.3c-3.3-6.3-5.6-9.5-6.9-11c-0.7-0.8-1-1.1-1-1.1c-5.8,1.5-8.2-4.1-8.2-4.1c-2.8,1.2-4.6,3.3-5.7,5.1
			c-0.3,0.5-0.5,0.9-0.7,1.3C73.6,271.7,73.7,273.2,74.5,274.4z"/>
		<path class="st7" d="M80.9,258.1l1.7,1.2l0.8,0.6l7.5,5.1l0.2,0.2l1.7,1.1l22.1-34.2l3.1-4.8c2.2-3.4,2.9-7.5,2.1-11.4L107.9,160
			l-2.3-0.1l-21.8-0.8l-0.1,2.3c-0.4,11.4,1.6,22.8,5.9,33.4l9.5,23.2c0.5,1.8,0.3,3.8-0.6,5.5l-10.9,21.3L80.9,258.1z"/>
		<polygon class="st31" points="72.7,275.6 81.8,275.6 81.9,271.8 72.8,272.9 		"/>
		<g>
			<path class="st29" d="M83.5,93.8l0,11.1l12.6,4.1c0,0,2.8-9.5,6.3-10.3c3.5-0.8,0-0.3,0-0.3L87,82.3L83.5,93.8z"/>
			<path class="st29" d="M103.4,79.4c0,0,5.6,13.3,0.9,23.6c-0.5,1.1-1.8,1.7-2.9,1.3c-3.3-1.1-9.9-4.6-15.5-15.7
				C85.8,88.7,95.9,72.1,103.4,79.4z"/>
			<path d="M87.6,93.2c0,0,0,4.2-4.2,5.8c0,0-4.1-10-3.1-17.5c0,0,3.1-9.5,11.1-6.7c0,0,8.5-4.6,13-0.2c0,0,3.7,7-1.3,7.8
				c0,0-2.2-2-4.8-1c0,0,1.3,4.8-2.1,6.4l0,6.2l-1,0.1l-0.9-3.4C94.3,90.7,90.3,84.2,87.6,93.2z"/>
		</g>
		<path class="st4" d="M69.9,112.6c0,0-6.4-0.2-8.7,21.7l11,4.1C72.2,138.3,80.7,114,69.9,112.6z"/>
		<path class="st31" d="M67.4,144.4l2.9-6.9l1.8,0.6c0,0,2.9-8.3,3.1-15.5l-6.8,3.7l-0.1,2.2l-0.5,8L67.4,144.4z"/>
		<path class="st4" d="M83.1,103.6l-2.9,1.9l-0.5,0.3l-10.4,6.8l-0.8,15l-0.1,2.7c0,0.1,0,0.1,0,0.2l0.6,27.6l0,1.3
			c0,1.2,0.8,2.2,1.9,2.6c7.2,2.5,16.3,2.5,24.1,1.8h0v0c6.3-0.6,11.8-1.7,14.8-2.4c1.4-0.3,2.3-1.6,2.1-3l-1.8-18.9
			c0-0.1,0-0.2,0-0.4l0.9-26.6c0-0.5-1.1-2.3-1.6-2.5l-8.2-2.5l-0.4-0.2l-3.3-1.4L83.1,103.6z"/>
		<path class="st31" d="M109.9,139.3c0-0.1,0-0.2,0-0.4l0.4-12.5l-4.1-1.1l5.5,32.6L109.9,139.3z"/>
		<polygon class="st29" points="145.4,125.4 145.1,124.8 143.7,121.7 140.8,115.5 138.3,115.6 134,115.8 112,116.7 127.9,129.2 		
			"/>
		<path class="st29" d="M146.8,111.8l12.2-8.8c2.3-1.9,4.4-4.6,5.6-6.4c0.7-1,1.2-2,1.6-3.2c0.8-2.3,2.1-4.6,3.3-6.3
			c1.1-1.7,2-2.9,2-2.9c0.9,0.6,1.1,1.7,0.6,2.6l-2.1,3.8l3.1-2.7c1.1-0.9,2.4-1.5,3.7-1.7c5.2-0.7,4.3,5.4,4.3,5.4
			c-1.2,4.4-9,9.8-9,9.8l-23,22.2c-1.5,1.4-3.4,2-5.3,1.7c-1.8-0.2-3.5-1.2-4.6-3l1.3-6.8L146.8,111.8z"/>
		<path class="st4" d="M110,131.1l12.6-0.5l9.9-0.9l-0.7-15c-15-4.1-23.2-5.3-24.8-4.8c-0.5,0.2-1.7,1.3-1.7,1.3h0
			c-2.8,5.6-1.9,12.4,2.2,17.1L110,131.1z"/>
	</g>
	
		<image style="overflow:visible;" width="1181" height="1181" xlink:href="../../Downloads/Rectangle.png"  transform="matrix(4.038717e-02 0 0 4.038717e-02 166.3439 58.1967)">
	</image>
</g>
</svg>
