<svg width="16" height="16" viewBox="0 0 16 16" fill="none" xmlns="http://www.w3.org/2000/svg">
<path d="M9 7.33332C9.61884 7.33332 10.2123 7.08749 10.6499 6.64991C11.0875 6.21232 11.3333 5.61883 11.3333 4.99999C11.3333 4.38115 11.0875 3.78766 10.6499 3.35007C10.2123 2.91249 9.61884 2.66666 9 2.66666M8.762 13.3333H2.57134C1.88734 13.3333 1.33334 12.822 1.33334 12.1907C1.33334 10.6127 2.71934 9.33332 4.42867 9.33332H6.90467C7.5674 9.33095 8.21518 9.53022 8.762 9.90466M12.6667 9.33332V13.3333M14.6667 11.3333H10.6667M8 4.99999C8 5.61883 7.75417 6.21232 7.31659 6.64991C6.879 7.08749 6.28551 7.33332 5.66667 7.33332C5.04783 7.33332 4.45434 7.08749 4.01675 6.64991C3.57917 6.21232 3.33334 5.61883 3.33334 4.99999C3.33334 4.38115 3.57917 3.78766 4.01675 3.35007C4.45434 2.91249 5.04783 2.66666 5.66667 2.66666C6.28551 2.66666 6.879 2.91249 7.31659 3.35007C7.75417 3.78766 8 4.38115 8 4.99999Z" stroke="#757575" stroke-linecap="round" stroke-linejoin="round"/>
</svg>
